<svg xmlns="http://www.w3.org/2000/svg" width="400" height="400">
   <g transform="translate(211, 248)" >
   <rect x="-5" y="-5" width="10" height="10" style="stroke: #0f04d6; fill: #04d6d3" />
   </g>
   <g transform="translate(42, 355)" >
   <circle r="10" style="stroke: #660606; fill: #d60416" />
   </g>
   <g transform="translate(384, 309)" >
   <rect x="-5" y="-5" width="10" height="10" style="stroke: #0f04d6; fill: #04d6d3" />
   </g>
   <g transform="translate(303, 246)" >
   <rect x="-5" y="-5" width="10" height="10" style="stroke: #0f04d6; fill: #04d6d3" />
   </g>
   <g transform="translate(61, 114)" >
   <rect x="-5" y="-5" width="10" height="10" style="stroke: #0f04d6; fill: #04d6d3" />
   </g>
   <g transform="translate(5, 93)" >
   <rect x="-5" y="-5" width="10" height="10" style="stroke: #0f04d6; fill: #04d6d3" />
   </g>
   <g transform="translate(165, 47)" >
   <circle r="10" style="stroke: #660606; fill: #d60416" />
   </g>
   <g transform="translate(97, 299)" >
   <circle r="10" style="stroke: #660606; fill: #d60416" />
   </g>
   <g transform="translate(268, 241)" >
   <rect x="-5" y="-5" width="10" height="10" style="stroke: #0f04d6; fill: #04d6d3" />
   </g>
   <g transform="translate(296, 111)" >
   <rect x="-5" y="-5" width="10" height="10" style="stroke: #0f04d6; fill: #04d6d3" />
   </g>
   <g transform="translate(390, 297)" >
   <circle r="10" style="stroke: #660606; fill: #d60416" />
   </g>
   <g transform="translate(361, 60)" >
   <circle r="10" style="stroke: #660606; fill: #d60416" />
   </g>
   <g transform="translate(197, 209)" >
   <rect x="-5" y="-5" width="10" height="10" style="stroke: #0f04d6; fill: #04d6d3" />
   </g>
   <g transform="translate(369, 4)" >
   <circle r="10" style="stroke: #660606; fill: #d60416" />
   </g>
   <g transform="translate(78, 371)" >
   <rect x="-5" y="-5" width="10" height="10" style="stroke: #0f04d6; fill: #04d6d3" />
   </g>
   <g transform="translate(134, 190)" >
   <circle r="10" style="stroke: #660606; fill: #d60416" />
   </g>
   <g transform="translate(129, 356)" >
   <circle r="10" style="stroke: #660606; fill: #d60416" />
   </g>
   <g transform="translate(287, 108)" >
   <rect x="-5" y="-5" width="10" height="10" style="stroke: #0f04d6; fill: #04d6d3" />
   </g>
   <g transform="translate(381, 330)" >
   <circle r="10" style="stroke: #660606; fill: #d60416" />
   </g>
   <g transform="translate(130, 23)" >
   <circle r="10" style="stroke: #660606; fill: #d60416" />
   </g>
   <g transform="translate(91, 340)" >
   <circle r="10" style="stroke: #660606; fill: #d60416" />
   </g>
   <g transform="translate(265, 220)" >
   <circle r="10" style="stroke: #660606; fill: #d60416" />
   </g>
   <g transform="translate(185, 200)" >
   <circle r="10" style="stroke: #660606; fill: #d60416" />
   </g>
   <g transform="translate(366, 56)" >
   <circle r="10" style="stroke: #660606; fill: #d60416" />
   </g>
   <g transform="translate(254, 272)" >
   <circle r="10" style="stroke: #660606; fill: #d60416" />
   </g>
   <g transform="translate(30, 156)" >
   <circle r="10" style="stroke: #660606; fill: #d60416" />
   </g>
   <g transform="translate(10, 331)" >
   <rect x="-5" y="-5" width="10" height="10" style="stroke: #0f04d6; fill: #04d6d3" />
   </g>
   <g transform="translate(64, 86)" >
   <circle r="10" style="stroke: #660606; fill: #d60416" />
   </g>
   <g transform="translate(136, 21)" >
   <circle r="10" style="stroke: #660606; fill: #d60416" />
   </g>
   <g transform="translate(159, 378)" >
   <rect x="-5" y="-5" width="10" height="10" style="stroke: #0f04d6; fill: #04d6d3" />
   </g>
   <g transform="translate(189, 63)" >
   <circle r="10" style="stroke: #660606; fill: #d60416" />
   </g>
   <g transform="translate(265, 206)" >
   <circle r="10" style="stroke: #660606; fill: #d60416" />
   </g>
   <g transform="translate(178, 358)" >
   <circle r="10" style="stroke: #660606; fill: #d60416" />
   </g>
   <g transform="translate(345, 307)" >
   <rect x="-5" y="-5" width="10" height="10" style="stroke: #0f04d6; fill: #04d6d3" />
   </g>
   <g transform="translate(10, 37)" >
   <circle r="10" style="stroke: #660606; fill: #d60416" />
   </g>
   <g transform="translate(371, 160)" >
   <rect x="-5" y="-5" width="10" height="10" style="stroke: #0f04d6; fill: #04d6d3" />
   </g>
   <g transform="translate(375, 260)" >
   <rect x="-5" y="-5" width="10" height="10" style="stroke: #0f04d6; fill: #04d6d3" />
   </g>
   <g transform="translate(241, 389)" >
   <rect x="-5" y="-5" width="10" height="10" style="stroke: #0f04d6; fill: #04d6d3" />
   </g>
   <g transform="translate(305, 245)" >
   <circle r="10" style="stroke: #660606; fill: #d60416" />
   </g>
   <g transform="translate(246, 3)" >
   <circle r="10" style="stroke: #660606; fill: #d60416" />
   </g>
   <g transform="translate(311, 344)" >
   <circle r="10" style="stroke: #660606; fill: #d60416" />
   </g>
   <g transform="translate(174, 70)" >
   <circle r="10" style="stroke: #660606; fill: #d60416" />
   </g>
   <g transform="translate(369, 399)" >
   <circle r="10" style="stroke: #660606; fill: #d60416" />
   </g>
   <g transform="translate(197, 325)" >
   <circle r="10" style="stroke: #660606; fill: #d60416" />
   </g>
   <g transform="translate(305, 357)" >
   <rect x="-5" y="-5" width="10" height="10" style="stroke: #0f04d6; fill: #04d6d3" />
   </g>
   <g transform="translate(198, 204)" >
   <circle r="10" style="stroke: #660606; fill: #d60416" />
   </g>
   <g transform="translate(63, 42)" >
   <rect x="-5" y="-5" width="10" height="10" style="stroke: #0f04d6; fill: #04d6d3" />
   </g>
   <g transform="translate(126, 59)" >
   <rect x="-5" y="-5" width="10" height="10" style="stroke: #0f04d6; fill: #04d6d3" />
   </g>
   <g transform="translate(248, 5)" >
   <circle r="10" style="stroke: #660606; fill: #d60416" />
   </g>
   <g transform="translate(218, 63)" >
   <circle r="10" style="stroke: #660606; fill: #d60416" />
   </g>
   <g transform="translate(331, 105)" >
   <rect x="-5" y="-5" width="10" height="10" style="stroke: #0f04d6; fill: #04d6d3" />
   </g>
   <g transform="translate(78, 274)" >
   <rect x="-5" y="-5" width="10" height="10" style="stroke: #0f04d6; fill: #04d6d3" />
   </g>
   <g transform="translate(146, 157)" >
   <circle r="10" style="stroke: #660606; fill: #d60416" />
   </g>
   <g transform="translate(309, 98)" >
   <rect x="-5" y="-5" width="10" height="10" style="stroke: #0f04d6; fill: #04d6d3" />
   </g>
   <g transform="translate(178, 79)" >
   <circle r="10" style="stroke: #660606; fill: #d60416" />
   </g>
   <g transform="translate(284, 230)" >
   <circle r="10" style="stroke: #660606; fill: #d60416" />
   </g>
   <g transform="translate(240, 382)" >
   <rect x="-5" y="-5" width="10" height="10" style="stroke: #0f04d6; fill: #04d6d3" />
   </g>
   <g transform="translate(237, 73)" >
   <circle r="10" style="stroke: #660606; fill: #d60416" />
   </g>
   <g transform="translate(219, 335)" >
   <circle r="10" style="stroke: #660606; fill: #d60416" />
   </g>
   <g transform="translate(65, 40)" >
   <circle r="10" style="stroke: #660606; fill: #d60416" />
   </g>
   <g transform="translate(301, 73)" >
   <rect x="-5" y="-5" width="10" height="10" style="stroke: #0f04d6; fill: #04d6d3" />
   </g>
   <g transform="translate(249, 322)" >
   <circle r="10" style="stroke: #660606; fill: #d60416" />
   </g>
   <g transform="translate(370, 130)" >
   <circle r="10" style="stroke: #660606; fill: #d60416" />
   </g>
   <g transform="translate(200, 175)" >
   <rect x="-5" y="-5" width="10" height="10" style="stroke: #0f04d6; fill: #04d6d3" />
   </g>
   <g transform="translate(67, 161)" >
   <circle r="10" style="stroke: #660606; fill: #d60416" />
   </g>
   <g transform="translate(16, 96)" >
   <rect x="-5" y="-5" width="10" height="10" style="stroke: #0f04d6; fill: #04d6d3" />
   </g>
   <g transform="translate(308, 268)" >
   <rect x="-5" y="-5" width="10" height="10" style="stroke: #0f04d6; fill: #04d6d3" />
   </g>
   <g transform="translate(81, 193)" >
   <rect x="-5" y="-5" width="10" height="10" style="stroke: #0f04d6; fill: #04d6d3" />
   </g>
   <g transform="translate(137, 9)" >
   <circle r="10" style="stroke: #660606; fill: #d60416" />
   </g>
   <g transform="translate(47, 84)" >
   <circle r="10" style="stroke: #660606; fill: #d60416" />
   </g>
   <g transform="translate(99, 0)" >
   <circle r="10" style="stroke: #660606; fill: #d60416" />
   </g>
   <g transform="translate(150, 350)" >
   <circle r="10" style="stroke: #660606; fill: #d60416" />
   </g>
   <g transform="translate(271, 228)" >
   <rect x="-5" y="-5" width="10" height="10" style="stroke: #0f04d6; fill: #04d6d3" />
   </g>
   <g transform="translate(279, 105)" >
   <circle r="10" style="stroke: #660606; fill: #d60416" />
   </g>
   <g transform="translate(46, 386)" >
   <rect x="-5" y="-5" width="10" height="10" style="stroke: #0f04d6; fill: #04d6d3" />
   </g>
   <g transform="translate(274, 143)" >
   <circle r="10" style="stroke: #660606; fill: #d60416" />
   </g>
   <g transform="translate(392, 161)" >
   <circle r="10" style="stroke: #660606; fill: #d60416" />
   </g>
   <g transform="translate(266, 347)" >
   <rect x="-5" y="-5" width="10" height="10" style="stroke: #0f04d6; fill: #04d6d3" />
   </g>
   <g transform="translate(191, 38)" >
   <rect x="-5" y="-5" width="10" height="10" style="stroke: #0f04d6; fill: #04d6d3" />
   </g>
   <g transform="translate(205, 368)" >
   <circle r="10" style="stroke: #660606; fill: #d60416" />
   </g>
   <g transform="translate(139, 7)" >
   <rect x="-5" y="-5" width="10" height="10" style="stroke: #0f04d6; fill: #04d6d3" />
   </g>
   <g transform="translate(145, 76)" >
   <rect x="-5" y="-5" width="10" height="10" style="stroke: #0f04d6; fill: #04d6d3" />
   </g>
   <g transform="translate(40, 362)" >
   <circle r="10" style="stroke: #660606; fill: #d60416" />
   </g>
   <g transform="translate(311, 84)" >
   <rect x="-5" y="-5" width="10" height="10" style="stroke: #0f04d6; fill: #04d6d3" />
   </g>
   <g transform="translate(340, 61)" >
   <rect x="-5" y="-5" width="10" height="10" style="stroke: #0f04d6; fill: #04d6d3" />
   </g>
   <g transform="translate(60, 369)" >
   <circle r="10" style="stroke: #660606; fill: #d60416" />
   </g>
   <g transform="translate(251, 378)" >
   <circle r="10" style="stroke: #660606; fill: #d60416" />
   </g>
   <g transform="translate(301, 384)" >
   <circle r="10" style="stroke: #660606; fill: #d60416" />
   </g>
   <g transform="translate(79, 260)" >
   <circle r="10" style="stroke: #660606; fill: #d60416" />
   </g>
   <g transform="translate(68, 296)" >
   <circle r="10" style="stroke: #660606; fill: #d60416" />
   </g>
   <g transform="translate(189, 80)" >
   <circle r="10" style="stroke: #660606; fill: #d60416" />
   </g>
   <g transform="translate(2, 260)" >
   <circle r="10" style="stroke: #660606; fill: #d60416" />
   </g>
   <g transform="translate(29, 23)" >
   <circle r="10" style="stroke: #660606; fill: #d60416" />
   </g>
   <g transform="translate(329, 126)" >
   <rect x="-5" y="-5" width="10" height="10" style="stroke: #0f04d6; fill: #04d6d3" />
   </g>
   <g transform="translate(383, 368)" >
   <circle r="10" style="stroke: #660606; fill: #d60416" />
   </g>
   <g transform="translate(133, 199)" >
   <rect x="-5" y="-5" width="10" height="10" style="stroke: #0f04d6; fill: #04d6d3" />
   </g>
   <g transform="translate(1, 133)" >
   <circle r="10" style="stroke: #660606; fill: #d60416" />
   </g>
   <g transform="translate(27, 265)" >
   <circle r="10" style="stroke: #660606; fill: #d60416" />
   </g>
   <g transform="translate(160, 343)" >
   <circle r="10" style="stroke: #660606; fill: #d60416" />
   </g>
   <g transform="translate(323, 24)" >
   <rect x="-5" y="-5" width="10" height="10" style="stroke: #0f04d6; fill: #04d6d3" />
   </g>
   <g transform="translate(240, 94)" >
   <rect x="-5" y="-5" width="10" height="10" style="stroke: #0f04d6; fill: #04d6d3" />
   </g>
   <g transform="translate(99, 58)" >
   <rect x="-5" y="-5" width="10" height="10" style="stroke: #0f04d6; fill: #04d6d3" />
   </g>
   <g transform="translate(373, 174)" >
   <circle r="10" style="stroke: #660606; fill: #d60416" />
   </g>
   <g transform="translate(260, 152)" >
   <circle r="10" style="stroke: #660606; fill: #d60416" />
   </g>
   <g transform="translate(133, 381)" >
   <circle r="10" style="stroke: #660606; fill: #d60416" />
   </g>
   <g transform="translate(377, 125)" >
   <circle r="10" style="stroke: #660606; fill: #d60416" />
   </g>
   <g transform="translate(218, 345)" >
   <circle r="10" style="stroke: #660606; fill: #d60416" />
   </g>
   <g transform="translate(118, 51)" >
   <circle r="10" style="stroke: #660606; fill: #d60416" />
   </g>
   <g transform="translate(154, 51)" >
   <circle r="10" style="stroke: #660606; fill: #d60416" />
   </g>
   <g transform="translate(27, 242)" >
   <circle r="10" style="stroke: #660606; fill: #d60416" />
   </g>
   <g transform="translate(241, 296)" >
   <circle r="10" style="stroke: #660606; fill: #d60416" />
   </g>
   <g transform="translate(368, 135)" >
   <circle r="10" style="stroke: #660606; fill: #d60416" />
   </g>
   <g transform="translate(38, 98)" >
   <circle r="10" style="stroke: #660606; fill: #d60416" />
   </g>
   <g transform="translate(242, 308)" >
   <rect x="-5" y="-5" width="10" height="10" style="stroke: #0f04d6; fill: #04d6d3" />
   </g>
   <g transform="translate(97, 45)" >
   <circle r="10" style="stroke: #660606; fill: #d60416" />
   </g>
   <g transform="translate(370, 50)" >
   <circle r="10" style="stroke: #660606; fill: #d60416" />
   </g>
   <g transform="translate(179, 76)" >
   <circle r="10" style="stroke: #660606; fill: #d60416" />
   </g>
   <g transform="translate(27, 4)" >
   <circle r="10" style="stroke: #660606; fill: #d60416" />
   </g>
   <g transform="translate(42, 167)" >
   <rect x="-5" y="-5" width="10" height="10" style="stroke: #0f04d6; fill: #04d6d3" />
   </g>
   <g transform="translate(19, 170)" >
   <circle r="10" style="stroke: #660606; fill: #d60416" />
   </g>
   <g transform="translate(123, 61)" >
   <circle r="10" style="stroke: #660606; fill: #d60416" />
   </g>
   <g transform="translate(101, 54)" >
   <circle r="10" style="stroke: #660606; fill: #d60416" />
   </g>
   <g transform="translate(220, 324)" >
   <rect x="-5" y="-5" width="10" height="10" style="stroke: #0f04d6; fill: #04d6d3" />
   </g>
   <g transform="translate(128, 200)" >
   <rect x="-5" y="-5" width="10" height="10" style="stroke: #0f04d6; fill: #04d6d3" />
   </g>
   <g transform="translate(58, 364)" >
   <rect x="-5" y="-5" width="10" height="10" style="stroke: #0f04d6; fill: #04d6d3" />
   </g>
   <g transform="translate(145, 134)" >
   <circle r="10" style="stroke: #660606; fill: #d60416" />
   </g>
   <g transform="translate(390, 218)" >
   <circle r="10" style="stroke: #660606; fill: #d60416" />
   </g>
   <g transform="translate(339, 77)" >
   <rect x="-5" y="-5" width="10" height="10" style="stroke: #0f04d6; fill: #04d6d3" />
   </g>
   <g transform="translate(177, 18)" >
   <rect x="-5" y="-5" width="10" height="10" style="stroke: #0f04d6; fill: #04d6d3" />
   </g>
   <g transform="translate(102, 332)" >
   <rect x="-5" y="-5" width="10" height="10" style="stroke: #0f04d6; fill: #04d6d3" />
   </g>
   <g transform="translate(310, 111)" >
   <circle r="10" style="stroke: #660606; fill: #d60416" />
   </g>
   <g transform="translate(116, 165)" >
   <rect x="-5" y="-5" width="10" height="10" style="stroke: #0f04d6; fill: #04d6d3" />
   </g>
   <g transform="translate(168, 251)" >
   <circle r="10" style="stroke: #660606; fill: #d60416" />
   </g>
   <g transform="translate(169, 0)" >
   <circle r="10" style="stroke: #660606; fill: #d60416" />
   </g>
   <g transform="translate(179, 199)" >
   <rect x="-5" y="-5" width="10" height="10" style="stroke: #0f04d6; fill: #04d6d3" />
   </g>
   <g transform="translate(32, 154)" >
   <circle r="10" style="stroke: #660606; fill: #d60416" />
   </g>
   <g transform="translate(310, 133)" >
   <rect x="-5" y="-5" width="10" height="10" style="stroke: #0f04d6; fill: #04d6d3" />
   </g>
   <g transform="translate(122, 207)" >
   <circle r="10" style="stroke: #660606; fill: #d60416" />
   </g>
   <g transform="translate(233, 228)" >
   <rect x="-5" y="-5" width="10" height="10" style="stroke: #0f04d6; fill: #04d6d3" />
   </g>
   <g transform="translate(202, 94)" >
   <circle r="10" style="stroke: #660606; fill: #d60416" />
   </g>
   <g transform="translate(373, 130)" >
   <rect x="-5" y="-5" width="10" height="10" style="stroke: #0f04d6; fill: #04d6d3" />
   </g>
   <g transform="translate(172, 101)" >
   <circle r="10" style="stroke: #660606; fill: #d60416" />
   </g>
   <g transform="translate(390, 231)" >
   <rect x="-5" y="-5" width="10" height="10" style="stroke: #0f04d6; fill: #04d6d3" />
   </g>
   <g transform="translate(259, 163)" >
   <circle r="10" style="stroke: #660606; fill: #d60416" />
   </g>
   <g transform="translate(83, 50)" >
   <circle r="10" style="stroke: #660606; fill: #d60416" />
   </g>
   <g transform="translate(226, 32)" >
   <circle r="10" style="stroke: #660606; fill: #d60416" />
   </g>
   <g transform="translate(381, 315)" >
   <circle r="10" style="stroke: #660606; fill: #d60416" />
   </g>
   <g transform="translate(210, 207)" >
   <rect x="-5" y="-5" width="10" height="10" style="stroke: #0f04d6; fill: #04d6d3" />
   </g>
   <g transform="translate(391, 128)" >
   <rect x="-5" y="-5" width="10" height="10" style="stroke: #0f04d6; fill: #04d6d3" />
   </g>
   <g transform="translate(56, 241)" >
   <rect x="-5" y="-5" width="10" height="10" style="stroke: #0f04d6; fill: #04d6d3" />
   </g>
   <g transform="translate(164, 91)" >
   <circle r="10" style="stroke: #660606; fill: #d60416" />
   </g>
   <g transform="translate(35, 383)" >
   <circle r="10" style="stroke: #660606; fill: #d60416" />
   </g>
   <g transform="translate(43, 98)" >
   <rect x="-5" y="-5" width="10" height="10" style="stroke: #0f04d6; fill: #04d6d3" />
   </g>
   <g transform="translate(241, 260)" >
   <rect x="-5" y="-5" width="10" height="10" style="stroke: #0f04d6; fill: #04d6d3" />
   </g>
   <g transform="translate(287, 239)" >
   <rect x="-5" y="-5" width="10" height="10" style="stroke: #0f04d6; fill: #04d6d3" />
   </g>
   <g transform="translate(228, 5)" >
   <rect x="-5" y="-5" width="10" height="10" style="stroke: #0f04d6; fill: #04d6d3" />
   </g>
   <g transform="translate(274, 295)" >
   <circle r="10" style="stroke: #660606; fill: #d60416" />
   </g>
   <g transform="translate(215, 86)" >
   <rect x="-5" y="-5" width="10" height="10" style="stroke: #0f04d6; fill: #04d6d3" />
   </g>
   <g transform="translate(81, 245)" >
   <rect x="-5" y="-5" width="10" height="10" style="stroke: #0f04d6; fill: #04d6d3" />
   </g>
   <g transform="translate(174, 89)" >
   <rect x="-5" y="-5" width="10" height="10" style="stroke: #0f04d6; fill: #04d6d3" />
   </g>
   <g transform="translate(392, 149)" >
   <rect x="-5" y="-5" width="10" height="10" style="stroke: #0f04d6; fill: #04d6d3" />
   </g>
   <g transform="translate(162, 314)" >
   <circle r="10" style="stroke: #660606; fill: #d60416" />
   </g>
   <g transform="translate(90, 101)" >
   <rect x="-5" y="-5" width="10" height="10" style="stroke: #0f04d6; fill: #04d6d3" />
   </g>
   <g transform="translate(178, 219)" >
   <circle r="10" style="stroke: #660606; fill: #d60416" />
   </g>
   <g transform="translate(4, 277)" >
   <circle r="10" style="stroke: #660606; fill: #d60416" />
   </g>
   <g transform="translate(27, 197)" >
   <rect x="-5" y="-5" width="10" height="10" style="stroke: #0f04d6; fill: #04d6d3" />
   </g>
   <g transform="translate(302, 273)" >
   <rect x="-5" y="-5" width="10" height="10" style="stroke: #0f04d6; fill: #04d6d3" />
   </g>
   <g transform="translate(266, 193)" >
   <circle r="10" style="stroke: #660606; fill: #d60416" />
   </g>
   <g transform="translate(255, 25)" >
   <circle r="10" style="stroke: #660606; fill: #d60416" />
   </g>
   <g transform="translate(217, 261)" >
   <rect x="-5" y="-5" width="10" height="10" style="stroke: #0f04d6; fill: #04d6d3" />
   </g>
   <g transform="translate(142, 100)" >
   <circle r="10" style="stroke: #660606; fill: #d60416" />
   </g>
   <g transform="translate(157, 105)" >
   <circle r="10" style="stroke: #660606; fill: #d60416" />
   </g>
   <g transform="translate(1, 25)" >
   <rect x="-5" y="-5" width="10" height="10" style="stroke: #0f04d6; fill: #04d6d3" />
   </g>
   <g transform="translate(202, 250)" >
   <rect x="-5" y="-5" width="10" height="10" style="stroke: #0f04d6; fill: #04d6d3" />
   </g>
   <g transform="translate(204, 234)" >
   <circle r="10" style="stroke: #660606; fill: #d60416" />
   </g>
   <g transform="translate(137, 112)" >
   <circle r="10" style="stroke: #660606; fill: #d60416" />
   </g>
   <g transform="translate(201, 166)" >
   <circle r="10" style="stroke: #660606; fill: #d60416" />
   </g>
   <g transform="translate(36, 234)" >
   <circle r="10" style="stroke: #660606; fill: #d60416" />
   </g>
   <g transform="translate(337, 85)" >
   <rect x="-5" y="-5" width="10" height="10" style="stroke: #0f04d6; fill: #04d6d3" />
   </g>
   <g transform="translate(318, 75)" >
   <rect x="-5" y="-5" width="10" height="10" style="stroke: #0f04d6; fill: #04d6d3" />
   </g>
   <g transform="translate(67, 282)" >
   <circle r="10" style="stroke: #660606; fill: #d60416" />
   </g>
   <g transform="translate(390, 187)" >
   <rect x="-5" y="-5" width="10" height="10" style="stroke: #0f04d6; fill: #04d6d3" />
   </g>
   <g transform="translate(71, 135)" >
   <rect x="-5" y="-5" width="10" height="10" style="stroke: #0f04d6; fill: #04d6d3" />
   </g>
   <g transform="translate(236, 293)" >
   <circle r="10" style="stroke: #660606; fill: #d60416" />
   </g>
   <g transform="translate(349, 376)" >
   <circle r="10" style="stroke: #660606; fill: #d60416" />
   </g>
   <g transform="translate(78, 308)" >
   <circle r="10" style="stroke: #660606; fill: #d60416" />
   </g>
   <g transform="translate(82, 29)" >
   <rect x="-5" y="-5" width="10" height="10" style="stroke: #0f04d6; fill: #04d6d3" />
   </g>
   <g transform="translate(375, 289)" >
   <circle r="10" style="stroke: #660606; fill: #d60416" />
   </g>
   <g transform="translate(316, 254)" >
   <circle r="10" style="stroke: #660606; fill: #d60416" />
   </g>
   <g transform="translate(269, 111)" >
   <rect x="-5" y="-5" width="10" height="10" style="stroke: #0f04d6; fill: #04d6d3" />
   </g>
   <g transform="translate(219, 332)" >
   <circle r="10" style="stroke: #660606; fill: #d60416" />
   </g>
   <g transform="translate(216, 30)" >
   <circle r="10" style="stroke: #660606; fill: #d60416" />
   </g>
   <g transform="translate(379, 399)" >
   <rect x="-5" y="-5" width="10" height="10" style="stroke: #0f04d6; fill: #04d6d3" />
   </g>
   <g transform="translate(209, 155)" >
   <rect x="-5" y="-5" width="10" height="10" style="stroke: #0f04d6; fill: #04d6d3" />
   </g>
   <g transform="translate(101, 324)" >
   <circle r="10" style="stroke: #660606; fill: #d60416" />
   </g>
   <g transform="translate(38, 217)" >
   <circle r="10" style="stroke: #660606; fill: #d60416" />
   </g>
   <g transform="translate(187, 0)" >
   <rect x="-5" y="-5" width="10" height="10" style="stroke: #0f04d6; fill: #04d6d3" />
   </g>
   <g transform="translate(121, 307)" >
   <rect x="-5" y="-5" width="10" height="10" style="stroke: #0f04d6; fill: #04d6d3" />
   </g>
   <g transform="translate(261, 18)" >
   <circle r="10" style="stroke: #660606; fill: #d60416" />
   </g>
   <g transform="translate(309, 354)" >
   <rect x="-5" y="-5" width="10" height="10" style="stroke: #0f04d6; fill: #04d6d3" />
   </g>
   <g transform="translate(91, 335)" >
   <rect x="-5" y="-5" width="10" height="10" style="stroke: #0f04d6; fill: #04d6d3" />
   </g>
   <g transform="translate(33, 323)" >
   <circle r="10" style="stroke: #660606; fill: #d60416" />
   </g>
   <g transform="translate(84, 380)" >
   <rect x="-5" y="-5" width="10" height="10" style="stroke: #0f04d6; fill: #04d6d3" />
   </g>
   <g transform="translate(15, 289)" >
   <circle r="10" style="stroke: #660606; fill: #d60416" />
   </g>
   <g transform="translate(145, 66)" >
   <rect x="-5" y="-5" width="10" height="10" style="stroke: #0f04d6; fill: #04d6d3" />
   </g>
   <g transform="translate(189, 132)" >
   <rect x="-5" y="-5" width="10" height="10" style="stroke: #0f04d6; fill: #04d6d3" />
   </g>
   <g transform="translate(60, 252)" >
   <circle r="10" style="stroke: #660606; fill: #d60416" />
   </g>
   <g transform="translate(296, 59)" >
   <circle r="10" style="stroke: #660606; fill: #d60416" />
   </g>
   <g transform="translate(255, 100)" >
   <circle r="10" style="stroke: #660606; fill: #d60416" />
   </g>
   <g transform="translate(186, 308)" >
   <rect x="-5" y="-5" width="10" height="10" style="stroke: #0f04d6; fill: #04d6d3" />
   </g>
   <g transform="translate(17, 290)" >
   <circle r="10" style="stroke: #660606; fill: #d60416" />
   </g>
   <g transform="translate(60, 315)" >
   <circle r="10" style="stroke: #660606; fill: #d60416" />
   </g>
   <g transform="translate(162, 170)" >
   <circle r="10" style="stroke: #660606; fill: #d60416" />
   </g>
   <g transform="translate(276, 282)" >
   <rect x="-5" y="-5" width="10" height="10" style="stroke: #0f04d6; fill: #04d6d3" />
   </g>
   <g transform="translate(38, 245)" >
   <rect x="-5" y="-5" width="10" height="10" style="stroke: #0f04d6; fill: #04d6d3" />
   </g>
   <g transform="translate(387, 213)" >
   <circle r="10" style="stroke: #660606; fill: #d60416" />
   </g>
   <g transform="translate(57, 302)" >
   <circle r="10" style="stroke: #660606; fill: #d60416" />
   </g>
   <g transform="translate(150, 256)" >
   <circle r="10" style="stroke: #660606; fill: #d60416" />
   </g>
   <g transform="translate(307, 212)" >
   <circle r="10" style="stroke: #660606; fill: #d60416" />
   </g>
   <g transform="translate(240, 383)" >
   <circle r="10" style="stroke: #660606; fill: #d60416" />
   </g>
   <g transform="translate(220, 228)" >
   <circle r="10" style="stroke: #660606; fill: #d60416" />
   </g>
   <g transform="translate(71, 271)" >
   <rect x="-5" y="-5" width="10" height="10" style="stroke: #0f04d6; fill: #04d6d3" />
   </g>
   <g transform="translate(319, 80)" >
   <circle r="10" style="stroke: #660606; fill: #d60416" />
   </g>
   <g transform="translate(97, 346)" >
   <rect x="-5" y="-5" width="10" height="10" style="stroke: #0f04d6; fill: #04d6d3" />
   </g>
   <g transform="translate(344, 65)" >
   <rect x="-5" y="-5" width="10" height="10" style="stroke: #0f04d6; fill: #04d6d3" />
   </g>
   <g transform="translate(112, 335)" >
   <circle r="10" style="stroke: #660606; fill: #d60416" />
   </g>
   <g transform="translate(233, 53)" >
   <circle r="10" style="stroke: #660606; fill: #d60416" />
   </g>
   <g transform="translate(302, 372)" >
   <circle r="10" style="stroke: #660606; fill: #d60416" />
   </g>
   <g transform="translate(171, 243)" >
   <circle r="10" style="stroke: #660606; fill: #d60416" />
   </g>
   <g transform="translate(363, 22)" >
   <circle r="10" style="stroke: #660606; fill: #d60416" />
   </g>
   <g transform="translate(11, 36)" >
   <circle r="10" style="stroke: #660606; fill: #d60416" />
   </g>
   <g transform="translate(358, 60)" >
   <rect x="-5" y="-5" width="10" height="10" style="stroke: #0f04d6; fill: #04d6d3" />
   </g>
   <g transform="translate(224, 267)" >
   <circle r="10" style="stroke: #660606; fill: #d60416" />
   </g>
   <g transform="translate(237, 36)" >
   <rect x="-5" y="-5" width="10" height="10" style="stroke: #0f04d6; fill: #04d6d3" />
   </g>
   <g transform="translate(288, 217)" >
   <circle r="10" style="stroke: #660606; fill: #d60416" />
   </g>
   <g transform="translate(271, 128)" >
   <circle r="10" style="stroke: #660606; fill: #d60416" />
   </g>
   <g transform="translate(189, 3)" >
   <circle r="10" style="stroke: #660606; fill: #d60416" />
   </g>
   <g transform="translate(161, 220)" >
   <rect x="-5" y="-5" width="10" height="10" style="stroke: #0f04d6; fill: #04d6d3" />
   </g>
   <g transform="translate(2, 164)" >
   <rect x="-5" y="-5" width="10" height="10" style="stroke: #0f04d6; fill: #04d6d3" />
   </g>
   <g transform="translate(70, 326)" >
   <rect x="-5" y="-5" width="10" height="10" style="stroke: #0f04d6; fill: #04d6d3" />
   </g>
   <g transform="translate(179, 64)" >
   <rect x="-5" y="-5" width="10" height="10" style="stroke: #0f04d6; fill: #04d6d3" />
   </g>
   <g transform="translate(73, 382)" >
   <circle r="10" style="stroke: #660606; fill: #d60416" />
   </g>
   <g transform="translate(35, 361)" >
   <circle r="10" style="stroke: #660606; fill: #d60416" />
   </g>
   <g transform="translate(180, 78)" >
   <circle r="10" style="stroke: #660606; fill: #d60416" />
   </g>
   <g transform="translate(292, 136)" >
   <rect x="-5" y="-5" width="10" height="10" style="stroke: #0f04d6; fill: #04d6d3" />
   </g>
   <g transform="translate(258, 20)" >
   <circle r="10" style="stroke: #660606; fill: #d60416" />
   </g>
   <g transform="translate(18, 381)" >
   <circle r="10" style="stroke: #660606; fill: #d60416" />
   </g>
   <g transform="translate(301, 13)" >
   <circle r="10" style="stroke: #660606; fill: #d60416" />
   </g>
   <g transform="translate(133, 348)" >
   <circle r="10" style="stroke: #660606; fill: #d60416" />
   </g>
   <g transform="translate(178, 24)" >
   <circle r="10" style="stroke: #660606; fill: #d60416" />
   </g>
</svg>
