<svg xmlns="http://www.w3.org/2000/svg" width="400" height="400">
<rect x="0" y="0" width="400" height="400" style="fill: #FFCCBB"/>
   <g transform="translate(374, 139)" >
   <circle r="20" style="stroke: #660606; fill: #d60416" />
   </g>
   <g transform="translate(356, 378)" >
   <circle r="20" style="stroke: #660606; fill: #d60416" />
   </g>
   <g transform="translate(399, 97)" >
   <circle r="20" style="stroke: #660606; fill: #d60416" />
   </g>
   <g transform="translate(157, 22)" >
   <circle r="20" style="stroke: #660606; fill: #d60416" />
   </g>
   <g transform="translate(391, 228)" >
   <rect x="-10" y="-10" width="20" height="20" style="stroke: #0f04d6; fill: #04d6d3" />
   </g>
   <g transform="translate(392, 164)" >
   <rect x="-10" y="-10" width="20" height="20" style="stroke: #0f04d6; fill: #04d6d3" />
   </g>
   <g transform="translate(111, 357)" >
   <rect x="-10" y="-10" width="20" height="20" style="stroke: #0f04d6; fill: #04d6d3" />
   </g>
   <g transform="translate(299, 215)" >
   <rect x="-10" y="-10" width="20" height="20" style="stroke: #0f04d6; fill: #04d6d3" />
   </g>
   <g transform="translate(291, 283)" >
   <circle r="20" style="stroke: #660606; fill: #d60416" />
   </g>
   <g transform="translate(146, 274)" >
   <rect x="-10" y="-10" width="20" height="20" style="stroke: #0f04d6; fill: #04d6d3" />
   </g>
   <g transform="translate(306, 94)" >
   <rect x="-10" y="-10" width="20" height="20" style="stroke: #0f04d6; fill: #04d6d3" />
   </g>
   <g transform="translate(300, 271)" >
   <rect x="-10" y="-10" width="20" height="20" style="stroke: #0f04d6; fill: #04d6d3" />
   </g>
   <g transform="translate(20, 106)" >
   <circle r="20" style="stroke: #660606; fill: #d60416" />
   </g>
   <g transform="translate(389, 139)" >
   <circle r="20" style="stroke: #660606; fill: #d60416" />
   </g>
   <g transform="translate(154, 390)" >
   <rect x="-10" y="-10" width="20" height="20" style="stroke: #0f04d6; fill: #04d6d3" />
   </g>
   <g transform="translate(10, 293)" >
   <circle r="20" style="stroke: #660606; fill: #d60416" />
   </g>
   <g transform="translate(148, 344)" >
   <circle r="20" style="stroke: #660606; fill: #d60416" />
   </g>
   <g transform="translate(136, 257)" >
   <circle r="20" style="stroke: #660606; fill: #d60416" />
   </g>
   <g transform="translate(185, 92)" >
   <rect x="-10" y="-10" width="20" height="20" style="stroke: #0f04d6; fill: #04d6d3" />
   </g>
   <g transform="translate(356, 234)" >
   <rect x="-10" y="-10" width="20" height="20" style="stroke: #0f04d6; fill: #04d6d3" />
   </g>
   <g transform="translate(263, 16)" >
   <circle r="20" style="stroke: #660606; fill: #d60416" />
   </g>
   <g transform="translate(295, 342)" >
   <circle r="20" style="stroke: #660606; fill: #d60416" />
   </g>
   <g transform="translate(362, 144)" >
   <circle r="20" style="stroke: #660606; fill: #d60416" />
   </g>
   <g transform="translate(321, 155)" >
   <circle r="20" style="stroke: #660606; fill: #d60416" />
   </g>
   <g transform="translate(69, 218)" >
   <circle r="20" style="stroke: #660606; fill: #d60416" />
   </g>
   <g transform="translate(344, 65)" >
   <circle r="20" style="stroke: #660606; fill: #d60416" />
   </g>
   <g transform="translate(181, 299)" >
   <rect x="-10" y="-10" width="20" height="20" style="stroke: #0f04d6; fill: #04d6d3" />
   </g>
   <g transform="translate(320, 104)" >
   <circle r="20" style="stroke: #660606; fill: #d60416" />
   </g>
   <g transform="translate(198, 398)" >
   <circle r="20" style="stroke: #660606; fill: #d60416" />
   </g>
   <g transform="translate(269, 119)" >
   <rect x="-10" y="-10" width="20" height="20" style="stroke: #0f04d6; fill: #04d6d3" />
   </g>
   <g transform="translate(54, 86)" >
   <circle r="20" style="stroke: #660606; fill: #d60416" />
   </g>
   <g transform="translate(7, 17)" >
   <circle r="20" style="stroke: #660606; fill: #d60416" />
   </g>
   <g transform="translate(155, 76)" >
   <rect x="-10" y="-10" width="20" height="20" style="stroke: #0f04d6; fill: #04d6d3" />
   </g>
   <g transform="translate(146, 95)" >
   <circle r="20" style="stroke: #660606; fill: #d60416" />
   </g>
   <g transform="translate(373, 172)" >
   <rect x="-10" y="-10" width="20" height="20" style="stroke: #0f04d6; fill: #04d6d3" />
   </g>
   <g transform="translate(242, 220)" >
   <circle r="20" style="stroke: #660606; fill: #d60416" />
   </g>
   <g transform="translate(91, 10)" >
   <rect x="-10" y="-10" width="20" height="20" style="stroke: #0f04d6; fill: #04d6d3" />
   </g>
   <g transform="translate(281, 262)" >
   <circle r="20" style="stroke: #660606; fill: #d60416" />
   </g>
   <g transform="translate(107, 361)" >
   <circle r="20" style="stroke: #660606; fill: #d60416" />
   </g>
   <g transform="translate(347, 140)" >
   <circle r="20" style="stroke: #660606; fill: #d60416" />
   </g>
   <g transform="translate(202, 109)" >
   <circle r="20" style="stroke: #660606; fill: #d60416" />
   </g>
   <g transform="translate(384, 2)" >
   <circle r="20" style="stroke: #660606; fill: #d60416" />
   </g>
   <g transform="translate(70, 142)" >
   <circle r="20" style="stroke: #660606; fill: #d60416" />
   </g>
   <g transform="translate(378, 49)" >
   <circle r="20" style="stroke: #660606; fill: #d60416" />
   </g>
   <g transform="translate(285, 303)" >
   <circle r="20" style="stroke: #660606; fill: #d60416" />
   </g>
   <g transform="translate(287, 239)" >
   <circle r="20" style="stroke: #660606; fill: #d60416" />
   </g>
   <g transform="translate(81, 393)" >
   <circle r="20" style="stroke: #660606; fill: #d60416" />
   </g>
   <g transform="translate(190, 334)" >
   <rect x="-10" y="-10" width="20" height="20" style="stroke: #0f04d6; fill: #04d6d3" />
   </g>
   <g transform="translate(87, 328)" >
   <rect x="-10" y="-10" width="20" height="20" style="stroke: #0f04d6; fill: #04d6d3" />
   </g>
   <g transform="translate(322, 88)" >
   <circle r="20" style="stroke: #660606; fill: #d60416" />
   </g>
   <g transform="translate(48, 7)" >
   <circle r="20" style="stroke: #660606; fill: #d60416" />
   </g>
   <g transform="translate(290, 197)" >
   <circle r="20" style="stroke: #660606; fill: #d60416" />
   </g>
   <g transform="translate(260, 6)" >
   <rect x="-10" y="-10" width="20" height="20" style="stroke: #0f04d6; fill: #04d6d3" />
   </g>
   <g transform="translate(38, 40)" >
   <circle r="20" style="stroke: #660606; fill: #d60416" />
   </g>
   <g transform="translate(71, 161)" >
   <circle r="20" style="stroke: #660606; fill: #d60416" />
   </g>
   <g transform="translate(363, 139)" >
   <rect x="-10" y="-10" width="20" height="20" style="stroke: #0f04d6; fill: #04d6d3" />
   </g>
   <g transform="translate(274, 69)" >
   <rect x="-10" y="-10" width="20" height="20" style="stroke: #0f04d6; fill: #04d6d3" />
   </g>
   <g transform="translate(84, 74)" >
   <rect x="-10" y="-10" width="20" height="20" style="stroke: #0f04d6; fill: #04d6d3" />
   </g>
   <g transform="translate(374, 90)" >
   <rect x="-10" y="-10" width="20" height="20" style="stroke: #0f04d6; fill: #04d6d3" />
   </g>
   <g transform="translate(140, 28)" >
   <rect x="-10" y="-10" width="20" height="20" style="stroke: #0f04d6; fill: #04d6d3" />
   </g>
   <g transform="translate(396, 103)" >
   <rect x="-10" y="-10" width="20" height="20" style="stroke: #0f04d6; fill: #04d6d3" />
   </g>
   <g transform="translate(292, 160)" >
   <circle r="20" style="stroke: #660606; fill: #d60416" />
   </g>
   <g transform="translate(161, 253)" >
   <circle r="20" style="stroke: #660606; fill: #d60416" />
   </g>
   <g transform="translate(196, 190)" >
   <rect x="-10" y="-10" width="20" height="20" style="stroke: #0f04d6; fill: #04d6d3" />
   </g>
   <g transform="translate(382, 217)" >
   <circle r="20" style="stroke: #660606; fill: #d60416" />
   </g>
   <g transform="translate(237, 28)" >
   <circle r="20" style="stroke: #660606; fill: #d60416" />
   </g>
   <g transform="translate(358, 157)" >
   <rect x="-10" y="-10" width="20" height="20" style="stroke: #0f04d6; fill: #04d6d3" />
   </g>
   <g transform="translate(149, 77)" >
   <circle r="20" style="stroke: #660606; fill: #d60416" />
   </g>
   <g transform="translate(89, 357)" >
   <circle r="20" style="stroke: #660606; fill: #d60416" />
   </g>
   <g transform="translate(73, 293)" >
   <rect x="-10" y="-10" width="20" height="20" style="stroke: #0f04d6; fill: #04d6d3" />
   </g>
   <g transform="translate(309, 10)" >
   <rect x="-10" y="-10" width="20" height="20" style="stroke: #0f04d6; fill: #04d6d3" />
   </g>
   <g transform="translate(172, 153)" >
   <circle r="20" style="stroke: #660606; fill: #d60416" />
   </g>
   <g transform="translate(96, 168)" >
   <circle r="20" style="stroke: #660606; fill: #d60416" />
   </g>
   <g transform="translate(84, 327)" >
   <circle r="20" style="stroke: #660606; fill: #d60416" />
   </g>
   <g transform="translate(345, 385)" >
   <rect x="-10" y="-10" width="20" height="20" style="stroke: #0f04d6; fill: #04d6d3" />
   </g>
   <g transform="translate(125, 272)" >
   <circle r="20" style="stroke: #660606; fill: #d60416" />
   </g>
   <g transform="translate(247, 159)" >
   <rect x="-10" y="-10" width="20" height="20" style="stroke: #0f04d6; fill: #04d6d3" />
   </g>
   <g transform="translate(393, 211)" >
   <rect x="-10" y="-10" width="20" height="20" style="stroke: #0f04d6; fill: #04d6d3" />
   </g>
   <g transform="translate(339, 240)" >
   <circle r="20" style="stroke: #660606; fill: #d60416" />
   </g>
   <g transform="translate(366, 238)" >
   <rect x="-10" y="-10" width="20" height="20" style="stroke: #0f04d6; fill: #04d6d3" />
   </g>
   <g transform="translate(50, 159)" >
   <circle r="20" style="stroke: #660606; fill: #d60416" />
   </g>
   <g transform="translate(331, 187)" >
   <rect x="-10" y="-10" width="20" height="20" style="stroke: #0f04d6; fill: #04d6d3" />
   </g>
   <g transform="translate(347, 348)" >
   <circle r="20" style="stroke: #660606; fill: #d60416" />
   </g>
   <g transform="translate(239, 393)" >
   <rect x="-10" y="-10" width="20" height="20" style="stroke: #0f04d6; fill: #04d6d3" />
   </g>
   <g transform="translate(255, 192)" >
   <circle r="20" style="stroke: #660606; fill: #d60416" />
   </g>
   <g transform="translate(183, 211)" >
   <rect x="-10" y="-10" width="20" height="20" style="stroke: #0f04d6; fill: #04d6d3" />
   </g>
   <g transform="translate(308, 344)" >
   <circle r="20" style="stroke: #660606; fill: #d60416" />
   </g>
   <g transform="translate(205, 19)" >
   <rect x="-10" y="-10" width="20" height="20" style="stroke: #0f04d6; fill: #04d6d3" />
   </g>
   <g transform="translate(325, 204)" >
   <circle r="20" style="stroke: #660606; fill: #d60416" />
   </g>
   <g transform="translate(48, 357)" >
   <circle r="20" style="stroke: #660606; fill: #d60416" />
   </g>
   <g transform="translate(240, 338)" >
   <rect x="-10" y="-10" width="20" height="20" style="stroke: #0f04d6; fill: #04d6d3" />
   </g>
   <g transform="translate(218, 266)" >
   <circle r="20" style="stroke: #660606; fill: #d60416" />
   </g>
   <g transform="translate(161, 272)" >
   <rect x="-10" y="-10" width="20" height="20" style="stroke: #0f04d6; fill: #04d6d3" />
   </g>
   <g transform="translate(289, 288)" >
   <circle r="20" style="stroke: #660606; fill: #d60416" />
   </g>
   <g transform="translate(164, 97)" >
   <rect x="-10" y="-10" width="20" height="20" style="stroke: #0f04d6; fill: #04d6d3" />
   </g>
   <g transform="translate(352, 4)" >
   <circle r="20" style="stroke: #660606; fill: #d60416" />
   </g>
   <g transform="translate(263, 76)" >
   <circle r="20" style="stroke: #660606; fill: #d60416" />
   </g>
   <g transform="translate(139, 34)" >
   <rect x="-10" y="-10" width="20" height="20" style="stroke: #0f04d6; fill: #04d6d3" />
   </g>
   <g transform="translate(344, 177)" >
   <circle r="20" style="stroke: #660606; fill: #d60416" />
   </g>
   <g transform="translate(5, 377)" >
   <circle r="20" style="stroke: #660606; fill: #d60416" />
   </g>
   <g transform="translate(95, 128)" >
   <circle r="20" style="stroke: #660606; fill: #d60416" />
   </g>
   <g transform="translate(267, 144)" >
   <circle r="20" style="stroke: #660606; fill: #d60416" />
   </g>
   <g transform="translate(211, 276)" >
   <circle r="20" style="stroke: #660606; fill: #d60416" />
   </g>
   <g transform="translate(374, 265)" >
   <rect x="-10" y="-10" width="20" height="20" style="stroke: #0f04d6; fill: #04d6d3" />
   </g>
   <g transform="translate(79, 196)" >
   <rect x="-10" y="-10" width="20" height="20" style="stroke: #0f04d6; fill: #04d6d3" />
   </g>
   <g transform="translate(394, 134)" >
   <rect x="-10" y="-10" width="20" height="20" style="stroke: #0f04d6; fill: #04d6d3" />
   </g>
   <g transform="translate(142, 194)" >
   <rect x="-10" y="-10" width="20" height="20" style="stroke: #0f04d6; fill: #04d6d3" />
   </g>
   <g transform="translate(48, 341)" >
   <circle r="20" style="stroke: #660606; fill: #d60416" />
   </g>
   <g transform="translate(120, 384)" >
   <circle r="20" style="stroke: #660606; fill: #d60416" />
   </g>
   <g transform="translate(380, 133)" >
   <rect x="-10" y="-10" width="20" height="20" style="stroke: #0f04d6; fill: #04d6d3" />
   </g>
   <g transform="translate(33, 36)" >
   <circle r="20" style="stroke: #660606; fill: #d60416" />
   </g>
   <g transform="translate(57, 90)" >
   <circle r="20" style="stroke: #660606; fill: #d60416" />
   </g>
   <g transform="translate(31, 234)" >
   <rect x="-10" y="-10" width="20" height="20" style="stroke: #0f04d6; fill: #04d6d3" />
   </g>
   <g transform="translate(282, 164)" >
   <rect x="-10" y="-10" width="20" height="20" style="stroke: #0f04d6; fill: #04d6d3" />
   </g>
   <g transform="translate(300, 22)" >
   <circle r="20" style="stroke: #660606; fill: #d60416" />
   </g>
   <g transform="translate(40, 235)" >
   <circle r="20" style="stroke: #660606; fill: #d60416" />
   </g>
   <g transform="translate(356, 192)" >
   <rect x="-10" y="-10" width="20" height="20" style="stroke: #0f04d6; fill: #04d6d3" />
   </g>
   <g transform="translate(122, 16)" >
   <circle r="20" style="stroke: #660606; fill: #d60416" />
   </g>
   <g transform="translate(333, 241)" >
   <circle r="20" style="stroke: #660606; fill: #d60416" />
   </g>
   <g transform="translate(250, 398)" >
   <circle r="20" style="stroke: #660606; fill: #d60416" />
   </g>
   <g transform="translate(267, 198)" >
   <circle r="20" style="stroke: #660606; fill: #d60416" />
   </g>
   <g transform="translate(171, 15)" >
   <rect x="-10" y="-10" width="20" height="20" style="stroke: #0f04d6; fill: #04d6d3" />
   </g>
   <g transform="translate(34, 203)" >
   <rect x="-10" y="-10" width="20" height="20" style="stroke: #0f04d6; fill: #04d6d3" />
   </g>
   <g transform="translate(163, 166)" >
   <circle r="20" style="stroke: #660606; fill: #d60416" />
   </g>
   <g transform="translate(345, 282)" >
   <circle r="20" style="stroke: #660606; fill: #d60416" />
   </g>
   <g transform="translate(93, 59)" >
   <rect x="-10" y="-10" width="20" height="20" style="stroke: #0f04d6; fill: #04d6d3" />
   </g>
   <g transform="translate(292, 334)" >
   <circle r="20" style="stroke: #660606; fill: #d60416" />
   </g>
   <g transform="translate(22, 233)" >
   <rect x="-10" y="-10" width="20" height="20" style="stroke: #0f04d6; fill: #04d6d3" />
   </g>
   <g transform="translate(107, 208)" >
   <circle r="20" style="stroke: #660606; fill: #d60416" />
   </g>
   <g transform="translate(188, 28)" >
   <rect x="-10" y="-10" width="20" height="20" style="stroke: #0f04d6; fill: #04d6d3" />
   </g>
   <g transform="translate(310, 165)" >
   <circle r="20" style="stroke: #660606; fill: #d60416" />
   </g>
   <g transform="translate(244, 137)" >
   <rect x="-10" y="-10" width="20" height="20" style="stroke: #0f04d6; fill: #04d6d3" />
   </g>
   <g transform="translate(49, 258)" >
   <circle r="20" style="stroke: #660606; fill: #d60416" />
   </g>
   <g transform="translate(388, 231)" >
   <rect x="-10" y="-10" width="20" height="20" style="stroke: #0f04d6; fill: #04d6d3" />
   </g>
   <g transform="translate(295, 105)" >
   <rect x="-10" y="-10" width="20" height="20" style="stroke: #0f04d6; fill: #04d6d3" />
   </g>
   <g transform="translate(256, 376)" >
   <rect x="-10" y="-10" width="20" height="20" style="stroke: #0f04d6; fill: #04d6d3" />
   </g>
   <g transform="translate(185, 292)" >
   <rect x="-10" y="-10" width="20" height="20" style="stroke: #0f04d6; fill: #04d6d3" />
   </g>
   <g transform="translate(91, 118)" >
   <circle r="20" style="stroke: #660606; fill: #d60416" />
   </g>
   <g transform="translate(220, 339)" >
   <circle r="20" style="stroke: #660606; fill: #d60416" />
   </g>
   <g transform="translate(53, 131)" >
   <circle r="20" style="stroke: #660606; fill: #d60416" />
   </g>
   <g transform="translate(293, 363)" >
   <rect x="-10" y="-10" width="20" height="20" style="stroke: #0f04d6; fill: #04d6d3" />
   </g>
   <g transform="translate(108, 11)" >
   <circle r="20" style="stroke: #660606; fill: #d60416" />
   </g>
   <g transform="translate(297, 223)" >
   <rect x="-10" y="-10" width="20" height="20" style="stroke: #0f04d6; fill: #04d6d3" />
   </g>
   <g transform="translate(140, 180)" >
   <circle r="20" style="stroke: #660606; fill: #d60416" />
   </g>
   <g transform="translate(70, 260)" >
   <circle r="20" style="stroke: #660606; fill: #d60416" />
   </g>
   <g transform="translate(266, 311)" >
   <circle r="20" style="stroke: #660606; fill: #d60416" />
   </g>
   <g transform="translate(113, 394)" >
   <rect x="-10" y="-10" width="20" height="20" style="stroke: #0f04d6; fill: #04d6d3" />
   </g>
   <g transform="translate(180, 120)" >
   <rect x="-10" y="-10" width="20" height="20" style="stroke: #0f04d6; fill: #04d6d3" />
   </g>
   <g transform="translate(97, 97)" >
   <circle r="20" style="stroke: #660606; fill: #d60416" />
   </g>
   <g transform="translate(390, 347)" >
   <circle r="20" style="stroke: #660606; fill: #d60416" />
   </g>
   <g transform="translate(39, 264)" >
   <rect x="-10" y="-10" width="20" height="20" style="stroke: #0f04d6; fill: #04d6d3" />
   </g>
   <g transform="translate(39, 56)" >
   <circle r="20" style="stroke: #660606; fill: #d60416" />
   </g>
   <g transform="translate(113, 249)" >
   <rect x="-10" y="-10" width="20" height="20" style="stroke: #0f04d6; fill: #04d6d3" />
   </g>
   <g transform="translate(194, 303)" >
   <circle r="20" style="stroke: #660606; fill: #d60416" />
   </g>
   <g transform="translate(295, 388)" >
   <circle r="20" style="stroke: #660606; fill: #d60416" />
   </g>
   <g transform="translate(166, 360)" >
   <circle r="20" style="stroke: #660606; fill: #d60416" />
   </g>
   <g transform="translate(190, 298)" >
   <circle r="20" style="stroke: #660606; fill: #d60416" />
   </g>
   <g transform="translate(28, 226)" >
   <circle r="20" style="stroke: #660606; fill: #d60416" />
   </g>
   <g transform="translate(113, 98)" >
   <circle r="20" style="stroke: #660606; fill: #d60416" />
   </g>
   <g transform="translate(23, 185)" >
   <rect x="-10" y="-10" width="20" height="20" style="stroke: #0f04d6; fill: #04d6d3" />
   </g>
   <g transform="translate(213, 8)" >
   <circle r="20" style="stroke: #660606; fill: #d60416" />
   </g>
   <g transform="translate(22, 196)" >
   <rect x="-10" y="-10" width="20" height="20" style="stroke: #0f04d6; fill: #04d6d3" />
   </g>
   <g transform="translate(391, 217)" >
   <circle r="20" style="stroke: #660606; fill: #d60416" />
   </g>
   <g transform="translate(228, 304)" >
   <circle r="20" style="stroke: #660606; fill: #d60416" />
   </g>
   <g transform="translate(26, 102)" >
   <rect x="-10" y="-10" width="20" height="20" style="stroke: #0f04d6; fill: #04d6d3" />
   </g>
   <g transform="translate(266, 339)" >
   <rect x="-10" y="-10" width="20" height="20" style="stroke: #0f04d6; fill: #04d6d3" />
   </g>
   <g transform="translate(85, 120)" >
   <rect x="-10" y="-10" width="20" height="20" style="stroke: #0f04d6; fill: #04d6d3" />
   </g>
   <g transform="translate(389, 112)" >
   <circle r="20" style="stroke: #660606; fill: #d60416" />
   </g>
   <g transform="translate(63, 8)" >
   <circle r="20" style="stroke: #660606; fill: #d60416" />
   </g>
   <g transform="translate(182, 49)" >
   <circle r="20" style="stroke: #660606; fill: #d60416" />
   </g>
   <g transform="translate(143, 392)" >
   <circle r="20" style="stroke: #660606; fill: #d60416" />
   </g>
   <g transform="translate(25, 329)" >
   <circle r="20" style="stroke: #660606; fill: #d60416" />
   </g>
   <g transform="translate(242, 176)" >
   <rect x="-10" y="-10" width="20" height="20" style="stroke: #0f04d6; fill: #04d6d3" />
   </g>
   <g transform="translate(391, 392)" >
   <circle r="20" style="stroke: #660606; fill: #d60416" />
   </g>
   <g transform="translate(117, 334)" >
   <rect x="-10" y="-10" width="20" height="20" style="stroke: #0f04d6; fill: #04d6d3" />
   </g>
   <g transform="translate(274, 346)" >
   <circle r="20" style="stroke: #660606; fill: #d60416" />
   </g>
   <g transform="translate(10, 94)" >
   <rect x="-10" y="-10" width="20" height="20" style="stroke: #0f04d6; fill: #04d6d3" />
   </g>
   <g transform="translate(173, 324)" >
   <circle r="20" style="stroke: #660606; fill: #d60416" />
   </g>
   <g transform="translate(301, 386)" >
   <circle r="20" style="stroke: #660606; fill: #d60416" />
   </g>
   <g transform="translate(13, 235)" >
   <circle r="20" style="stroke: #660606; fill: #d60416" />
   </g>
   <g transform="translate(357, 114)" >
   <rect x="-10" y="-10" width="20" height="20" style="stroke: #0f04d6; fill: #04d6d3" />
   </g>
   <g transform="translate(152, 381)" >
   <rect x="-10" y="-10" width="20" height="20" style="stroke: #0f04d6; fill: #04d6d3" />
   </g>
   <g transform="translate(389, 301)" >
   <circle r="20" style="stroke: #660606; fill: #d60416" />
   </g>
   <g transform="translate(303, 178)" >
   <rect x="-10" y="-10" width="20" height="20" style="stroke: #0f04d6; fill: #04d6d3" />
   </g>
   <g transform="translate(190, 329)" >
   <circle r="20" style="stroke: #660606; fill: #d60416" />
   </g>
   <g transform="translate(101, 136)" >
   <circle r="20" style="stroke: #660606; fill: #d60416" />
   </g>
   <g transform="translate(17, 146)" >
   <circle r="20" style="stroke: #660606; fill: #d60416" />
   </g>
   <g transform="translate(40, 104)" >
   <rect x="-10" y="-10" width="20" height="20" style="stroke: #0f04d6; fill: #04d6d3" />
   </g>
   <g transform="translate(252, 2)" >
   <rect x="-10" y="-10" width="20" height="20" style="stroke: #0f04d6; fill: #04d6d3" />
   </g>
   <g transform="translate(209, 106)" >
   <rect x="-10" y="-10" width="20" height="20" style="stroke: #0f04d6; fill: #04d6d3" />
   </g>
   <g transform="translate(184, 296)" >
   <circle r="20" style="stroke: #660606; fill: #d60416" />
   </g>
   <g transform="translate(218, 294)" >
   <circle r="20" style="stroke: #660606; fill: #d60416" />
   </g>
   <g transform="translate(394, 21)" >
   <circle r="20" style="stroke: #660606; fill: #d60416" />
   </g>
   <g transform="translate(318, 367)" >
   <circle r="20" style="stroke: #660606; fill: #d60416" />
   </g>
   <g transform="translate(55, 258)" >
   <rect x="-10" y="-10" width="20" height="20" style="stroke: #0f04d6; fill: #04d6d3" />
   </g>
   <g transform="translate(95, 56)" >
   <rect x="-10" y="-10" width="20" height="20" style="stroke: #0f04d6; fill: #04d6d3" />
   </g>
   <g transform="translate(130, 20)" >
   <circle r="20" style="stroke: #660606; fill: #d60416" />
   </g>
   <g transform="translate(298, 63)" >
   <circle r="20" style="stroke: #660606; fill: #d60416" />
   </g>
   <g transform="translate(81, 361)" >
   <circle r="20" style="stroke: #660606; fill: #d60416" />
   </g>
   <g transform="translate(386, 399)" >
   <circle r="20" style="stroke: #660606; fill: #d60416" />
   </g>
   <g transform="translate(383, 97)" >
   <circle r="20" style="stroke: #660606; fill: #d60416" />
   </g>
   <g transform="translate(30, 361)" >
   <circle r="20" style="stroke: #660606; fill: #d60416" />
   </g>
   <g transform="translate(42, 144)" >
   <circle r="20" style="stroke: #660606; fill: #d60416" />
   </g>
   <g transform="translate(98, 215)" >
   <rect x="-10" y="-10" width="20" height="20" style="stroke: #0f04d6; fill: #04d6d3" />
   </g>
   <g transform="translate(97, 168)" >
   <rect x="-10" y="-10" width="20" height="20" style="stroke: #0f04d6; fill: #04d6d3" />
   </g>
   <g transform="translate(17, 361)" >
   <rect x="-10" y="-10" width="20" height="20" style="stroke: #0f04d6; fill: #04d6d3" />
   </g>
   <g transform="translate(315, 375)" >
   <rect x="-10" y="-10" width="20" height="20" style="stroke: #0f04d6; fill: #04d6d3" />
   </g>
   <g transform="translate(97, 83)" >
   <circle r="20" style="stroke: #660606; fill: #d60416" />
   </g>
   <g transform="translate(63, 63)" >
   <rect x="-10" y="-10" width="20" height="20" style="stroke: #0f04d6; fill: #04d6d3" />
   </g>
   <g transform="translate(97, 149)" >
   <rect x="-10" y="-10" width="20" height="20" style="stroke: #0f04d6; fill: #04d6d3" />
   </g>
   <g transform="translate(370, 7)" >
   <circle r="20" style="stroke: #660606; fill: #d60416" />
   </g>
   <g transform="translate(208, 45)" >
   <circle r="20" style="stroke: #660606; fill: #d60416" />
   </g>
   <g transform="translate(123, 268)" >
   <rect x="-10" y="-10" width="20" height="20" style="stroke: #0f04d6; fill: #04d6d3" />
   </g>
   <g transform="translate(68, 222)" >
   <circle r="20" style="stroke: #660606; fill: #d60416" />
   </g>
   <g transform="translate(79, 294)" >
   <circle r="20" style="stroke: #660606; fill: #d60416" />
   </g>
   <g transform="translate(153, 160)" >
   <circle r="20" style="stroke: #660606; fill: #d60416" />
   </g>
   <g transform="translate(3, 136)" >
   <circle r="20" style="stroke: #660606; fill: #d60416" />
   </g>
   <g transform="translate(133, 112)" >
   <circle r="20" style="stroke: #660606; fill: #d60416" />
   </g>
   <g transform="translate(42, 256)" >
   <rect x="-10" y="-10" width="20" height="20" style="stroke: #0f04d6; fill: #04d6d3" />
   </g>
   <g transform="translate(93, 142)" >
   <circle r="20" style="stroke: #660606; fill: #d60416" />
   </g>
   <g transform="translate(177, 396)" >
   <circle r="20" style="stroke: #660606; fill: #d60416" />
   </g>
   <g transform="translate(374, 288)" >
   <circle r="20" style="stroke: #660606; fill: #d60416" />
   </g>
   <g transform="translate(349, 139)" >
   <circle r="20" style="stroke: #660606; fill: #d60416" />
   </g>
   <g transform="translate(180, 337)" >
   <rect x="-10" y="-10" width="20" height="20" style="stroke: #0f04d6; fill: #04d6d3" />
   </g>
   <g transform="translate(265, 198)" >
   <rect x="-10" y="-10" width="20" height="20" style="stroke: #0f04d6; fill: #04d6d3" />
   </g>
   <g transform="translate(177, 38)" >
   <circle r="20" style="stroke: #660606; fill: #d60416" />
   </g>
   <g transform="translate(247, 147)" >
   <rect x="-10" y="-10" width="20" height="20" style="stroke: #0f04d6; fill: #04d6d3" />
   </g>
   <g transform="translate(208, 168)" >
   <circle r="20" style="stroke: #660606; fill: #d60416" />
   </g>
   <g transform="translate(3, 218)" >
   <rect x="-10" y="-10" width="20" height="20" style="stroke: #0f04d6; fill: #04d6d3" />
   </g>
   <g transform="translate(326, 180)" >
   <rect x="-10" y="-10" width="20" height="20" style="stroke: #0f04d6; fill: #04d6d3" />
   </g>
   <g transform="translate(180, 35)" >
   <circle r="20" style="stroke: #660606; fill: #d60416" />
   </g>
   <g transform="translate(144, 161)" >
   <rect x="-10" y="-10" width="20" height="20" style="stroke: #0f04d6; fill: #04d6d3" />
   </g>
   <g transform="translate(153, 374)" >
   <rect x="-10" y="-10" width="20" height="20" style="stroke: #0f04d6; fill: #04d6d3" />
   </g>
   <g transform="translate(348, 119)" >
   <rect x="-10" y="-10" width="20" height="20" style="stroke: #0f04d6; fill: #04d6d3" />
   </g>
   <g transform="translate(250, 114)" >
   <circle r="20" style="stroke: #660606; fill: #d60416" />
   </g>
   <g transform="translate(69, 31)" >
   <circle r="20" style="stroke: #660606; fill: #d60416" />
   </g>
   <g transform="translate(345, 327)" >
   <circle r="20" style="stroke: #660606; fill: #d60416" />
   </g>
   <g transform="translate(131, 140)" >
   <circle r="20" style="stroke: #660606; fill: #d60416" />
   </g>
   <g transform="translate(24, 378)" >
   <rect x="-10" y="-10" width="20" height="20" style="stroke: #0f04d6; fill: #04d6d3" />
   </g>
   <g transform="translate(27, 273)" >
   <circle r="20" style="stroke: #660606; fill: #d60416" />
   </g>
   <g transform="translate(369, 87)" >
   <rect x="-10" y="-10" width="20" height="20" style="stroke: #0f04d6; fill: #04d6d3" />
   </g>
   <g transform="translate(134, 57)" >
   <circle r="20" style="stroke: #660606; fill: #d60416" />
   </g>
   <g transform="translate(309, 136)" >
   <circle r="20" style="stroke: #660606; fill: #d60416" />
   </g>
   <g transform="translate(151, 366)" >
   <circle r="20" style="stroke: #660606; fill: #d60416" />
   </g>
   <g transform="translate(232, 344)" >
   <circle r="20" style="stroke: #660606; fill: #d60416" />
   </g>
   <g transform="translate(46, 193)" >
   <circle r="20" style="stroke: #660606; fill: #d60416" />
   </g>
   <g transform="translate(153, 95)" >
   <circle r="20" style="stroke: #660606; fill: #d60416" />
   </g>
   <g transform="translate(371, 57)" >
   <circle r="20" style="stroke: #660606; fill: #d60416" />
   </g>
   <g transform="translate(341, 392)" >
   <rect x="-10" y="-10" width="20" height="20" style="stroke: #0f04d6; fill: #04d6d3" />
   </g>
   <g transform="translate(277, 370)" >
   <rect x="-10" y="-10" width="20" height="20" style="stroke: #0f04d6; fill: #04d6d3" />
   </g>
</svg>
