<svg xmlns="http://www.w3.org/2000/svg" width="400" height="400">
<rect x="0" y="0" width="400" height="400" style="fill: #FFCCBB" />
   <g transform="translate(337, 244)" >
   <rect x="-5" y="-5" width="10" height="10" style="stroke: #0f04d6; fill: #04d6d3" />
   </g>
   <g transform="translate(107, 118)" >
   <rect x="-5" y="-5" width="10" height="10" style="stroke: #0f04d6; fill: #04d6d3" />
   </g>
   <g transform="translate(166, 377)" >
   <rect x="-5" y="-5" width="10" height="10" style="stroke: #0f04d6; fill: #04d6d3" />
   </g>
   <g transform="translate(107, 198)" >
   <circle r="10" style="stroke: #660606; fill: #d60416" />
   </g>
   <g transform="translate(275, 133)" >
   <circle r="10" style="stroke: #660606; fill: #d60416" />
   </g>
   <g transform="translate(342, 189)" >
   <rect x="-5" y="-5" width="10" height="10" style="stroke: #0f04d6; fill: #04d6d3" />
   </g>
   <g transform="translate(41, 155)" >
   <circle r="10" style="stroke: #660606; fill: #d60416" />
   </g>
   <g transform="translate(371, 284)" >
   <rect x="-5" y="-5" width="10" height="10" style="stroke: #0f04d6; fill: #04d6d3" />
   </g>
   <g transform="translate(269, 291)" >
   <circle r="10" style="stroke: #660606; fill: #d60416" />
   </g>
   <g transform="translate(171, 240)" >
   <rect x="-5" y="-5" width="10" height="10" style="stroke: #0f04d6; fill: #04d6d3" />
   </g>
   <g transform="translate(309, 318)" >
   <circle r="10" style="stroke: #660606; fill: #d60416" />
   </g>
   <g transform="translate(257, 44)" >
   <circle r="10" style="stroke: #660606; fill: #d60416" />
   </g>
   <g transform="translate(183, 175)" >
   <rect x="-5" y="-5" width="10" height="10" style="stroke: #0f04d6; fill: #04d6d3" />
   </g>
   <g transform="translate(301, 264)" >
   <circle r="10" style="stroke: #660606; fill: #d60416" />
   </g>
   <g transform="translate(184, 109)" >
   <circle r="10" style="stroke: #660606; fill: #d60416" />
   </g>
   <g transform="translate(57, 41)" >
   <circle r="10" style="stroke: #660606; fill: #d60416" />
   </g>
   <g transform="translate(10, 272)" >
   <rect x="-5" y="-5" width="10" height="10" style="stroke: #0f04d6; fill: #04d6d3" />
   </g>
   <g transform="translate(339, 226)" >
   <circle r="10" style="stroke: #660606; fill: #d60416" />
   </g>
   <g transform="translate(346, 85)" >
   <circle r="10" style="stroke: #660606; fill: #d60416" />
   </g>
   <g transform="translate(145, 169)" >
   <rect x="-5" y="-5" width="10" height="10" style="stroke: #0f04d6; fill: #04d6d3" />
   </g>
   <g transform="translate(161, 302)" >
   <circle r="10" style="stroke: #660606; fill: #d60416" />
   </g>
   <g transform="translate(76, 121)" >
   <circle r="10" style="stroke: #660606; fill: #d60416" />
   </g>
   <g transform="translate(350, 289)" >
   <rect x="-5" y="-5" width="10" height="10" style="stroke: #0f04d6; fill: #04d6d3" />
   </g>
   <g transform="translate(334, 190)" >
   <rect x="-5" y="-5" width="10" height="10" style="stroke: #0f04d6; fill: #04d6d3" />
   </g>
   <g transform="translate(45, 106)" >
   <rect x="-5" y="-5" width="10" height="10" style="stroke: #0f04d6; fill: #04d6d3" />
   </g>
   <g transform="translate(124, 89)" >
   <rect x="-5" y="-5" width="10" height="10" style="stroke: #0f04d6; fill: #04d6d3" />
   </g>
   <g transform="translate(78, 137)" >
   <rect x="-5" y="-5" width="10" height="10" style="stroke: #0f04d6; fill: #04d6d3" />
   </g>
   <g transform="translate(285, 391)" >
   <circle r="10" style="stroke: #660606; fill: #d60416" />
   </g>
   <g transform="translate(184, 217)" >
   <rect x="-5" y="-5" width="10" height="10" style="stroke: #0f04d6; fill: #04d6d3" />
   </g>
   <g transform="translate(306, 14)" >
   <circle r="10" style="stroke: #660606; fill: #d60416" />
   </g>
   <g transform="translate(91, 134)" >
   <rect x="-5" y="-5" width="10" height="10" style="stroke: #0f04d6; fill: #04d6d3" />
   </g>
   <g transform="translate(202, 222)" >
   <rect x="-5" y="-5" width="10" height="10" style="stroke: #0f04d6; fill: #04d6d3" />
   </g>
   <g transform="translate(193, 238)" >
   <circle r="10" style="stroke: #660606; fill: #d60416" />
   </g>
   <g transform="translate(350, 173)" >
   <circle r="10" style="stroke: #660606; fill: #d60416" />
   </g>
   <g transform="translate(78, 82)" >
   <circle r="10" style="stroke: #660606; fill: #d60416" />
   </g>
   <g transform="translate(372, 357)" >
   <circle r="10" style="stroke: #660606; fill: #d60416" />
   </g>
   <g transform="translate(258, 213)" >
   <circle r="10" style="stroke: #660606; fill: #d60416" />
   </g>
   <g transform="translate(23, 59)" >
   <rect x="-5" y="-5" width="10" height="10" style="stroke: #0f04d6; fill: #04d6d3" />
   </g>
   <g transform="translate(57, 386)" >
   <circle r="10" style="stroke: #660606; fill: #d60416" />
   </g>
   <g transform="translate(360, 278)" >
   <circle r="10" style="stroke: #660606; fill: #d60416" />
   </g>
   <g transform="translate(60, 379)" >
   <rect x="-5" y="-5" width="10" height="10" style="stroke: #0f04d6; fill: #04d6d3" />
   </g>
   <g transform="translate(232, 350)" >
   <circle r="10" style="stroke: #660606; fill: #d60416" />
   </g>
   <g transform="translate(10, 25)" >
   <rect x="-5" y="-5" width="10" height="10" style="stroke: #0f04d6; fill: #04d6d3" />
   </g>
   <g transform="translate(134, 141)" >
   <circle r="10" style="stroke: #660606; fill: #d60416" />
   </g>
   <g transform="translate(393, 7)" >
   <rect x="-5" y="-5" width="10" height="10" style="stroke: #0f04d6; fill: #04d6d3" />
   </g>
   <g transform="translate(197, 64)" >
   <rect x="-5" y="-5" width="10" height="10" style="stroke: #0f04d6; fill: #04d6d3" />
   </g>
   <g transform="translate(150, 180)" >
   <circle r="10" style="stroke: #660606; fill: #d60416" />
   </g>
   <g transform="translate(46, 200)" >
   <rect x="-5" y="-5" width="10" height="10" style="stroke: #0f04d6; fill: #04d6d3" />
   </g>
   <g transform="translate(10, 73)" >
   <circle r="10" style="stroke: #660606; fill: #d60416" />
   </g>
   <g transform="translate(150, 83)" >
   <rect x="-5" y="-5" width="10" height="10" style="stroke: #0f04d6; fill: #04d6d3" />
   </g>
   <g transform="translate(129, 90)" >
   <rect x="-5" y="-5" width="10" height="10" style="stroke: #0f04d6; fill: #04d6d3" />
   </g>
   <g transform="translate(25, 375)" >
   <circle r="10" style="stroke: #660606; fill: #d60416" />
   </g>
   <g transform="translate(9, 240)" >
   <circle r="10" style="stroke: #660606; fill: #d60416" />
   </g>
   <g transform="translate(309, 368)" >
   <circle r="10" style="stroke: #660606; fill: #d60416" />
   </g>
   <g transform="translate(297, 310)" >
   <rect x="-5" y="-5" width="10" height="10" style="stroke: #0f04d6; fill: #04d6d3" />
   </g>
   <g transform="translate(228, 323)" >
   <rect x="-5" y="-5" width="10" height="10" style="stroke: #0f04d6; fill: #04d6d3" />
   </g>
   <g transform="translate(193, 126)" >
   <circle r="10" style="stroke: #660606; fill: #d60416" />
   </g>
   <g transform="translate(317, 12)" >
   <circle r="10" style="stroke: #660606; fill: #d60416" />
   </g>
   <g transform="translate(125, 268)" >
   <rect x="-5" y="-5" width="10" height="10" style="stroke: #0f04d6; fill: #04d6d3" />
   </g>
   <g transform="translate(93, 340)" >
   <circle r="10" style="stroke: #660606; fill: #d60416" />
   </g>
   <g transform="translate(328, 74)" >
   <rect x="-5" y="-5" width="10" height="10" style="stroke: #0f04d6; fill: #04d6d3" />
   </g>
   <g transform="translate(6, 178)" >
   <circle r="10" style="stroke: #660606; fill: #d60416" />
   </g>
   <g transform="translate(67, 38)" >
   <circle r="10" style="stroke: #660606; fill: #d60416" />
   </g>
   <g transform="translate(150, 321)" >
   <circle r="10" style="stroke: #660606; fill: #d60416" />
   </g>
   <g transform="translate(182, 391)" >
   <circle r="10" style="stroke: #660606; fill: #d60416" />
   </g>
   <g transform="translate(151, 32)" >
   <circle r="10" style="stroke: #660606; fill: #d60416" />
   </g>
   <g transform="translate(218, 381)" >
   <circle r="10" style="stroke: #660606; fill: #d60416" />
   </g>
   <g transform="translate(9, 163)" >
   <circle r="10" style="stroke: #660606; fill: #d60416" />
   </g>
   <g transform="translate(315, 80)" >
   <circle r="10" style="stroke: #660606; fill: #d60416" />
   </g>
   <g transform="translate(369, 170)" >
   <rect x="-5" y="-5" width="10" height="10" style="stroke: #0f04d6; fill: #04d6d3" />
   </g>
   <g transform="translate(299, 145)" >
   <circle r="10" style="stroke: #660606; fill: #d60416" />
   </g>
   <g transform="translate(385, 86)" >
   <circle r="10" style="stroke: #660606; fill: #d60416" />
   </g>
   <g transform="translate(33, 379)" >
   <circle r="10" style="stroke: #660606; fill: #d60416" />
   </g>
   <g transform="translate(18, 171)" >
   <rect x="-5" y="-5" width="10" height="10" style="stroke: #0f04d6; fill: #04d6d3" />
   </g>
   <g transform="translate(339, 273)" >
   <circle r="10" style="stroke: #660606; fill: #d60416" />
   </g>
   <g transform="translate(251, 120)" >
   <rect x="-5" y="-5" width="10" height="10" style="stroke: #0f04d6; fill: #04d6d3" />
   </g>
   <g transform="translate(174, 223)" >
   <circle r="10" style="stroke: #660606; fill: #d60416" />
   </g>
   <g transform="translate(107, 336)" >
   <rect x="-5" y="-5" width="10" height="10" style="stroke: #0f04d6; fill: #04d6d3" />
   </g>
   <g transform="translate(214, 252)" >
   <circle r="10" style="stroke: #660606; fill: #d60416" />
   </g>
   <g transform="translate(227, 190)" >
   <circle r="10" style="stroke: #660606; fill: #d60416" />
   </g>
   <g transform="translate(162, 19)" >
   <rect x="-5" y="-5" width="10" height="10" style="stroke: #0f04d6; fill: #04d6d3" />
   </g>
   <g transform="translate(241, 347)" >
   <circle r="10" style="stroke: #660606; fill: #d60416" />
   </g>
   <g transform="translate(165, 118)" >
   <rect x="-5" y="-5" width="10" height="10" style="stroke: #0f04d6; fill: #04d6d3" />
   </g>
   <g transform="translate(61, 267)" >
   <circle r="10" style="stroke: #660606; fill: #d60416" />
   </g>
   <g transform="translate(250, 210)" >
   <circle r="10" style="stroke: #660606; fill: #d60416" />
   </g>
   <g transform="translate(0, 176)" >
   <circle r="10" style="stroke: #660606; fill: #d60416" />
   </g>
   <g transform="translate(361, 51)" >
   <circle r="10" style="stroke: #660606; fill: #d60416" />
   </g>
   <g transform="translate(60, 105)" >
   <circle r="10" style="stroke: #660606; fill: #d60416" />
   </g>
   <g transform="translate(78, 361)" >
   <rect x="-5" y="-5" width="10" height="10" style="stroke: #0f04d6; fill: #04d6d3" />
   </g>
   <g transform="translate(371, 251)" >
   <circle r="10" style="stroke: #660606; fill: #d60416" />
   </g>
   <g transform="translate(105, 269)" >
   <rect x="-5" y="-5" width="10" height="10" style="stroke: #0f04d6; fill: #04d6d3" />
   </g>
   <g transform="translate(25, 341)" >
   <rect x="-5" y="-5" width="10" height="10" style="stroke: #0f04d6; fill: #04d6d3" />
   </g>
   <g transform="translate(382, 148)" >
   <circle r="10" style="stroke: #660606; fill: #d60416" />
   </g>
   <g transform="translate(303, 202)" >
   <circle r="10" style="stroke: #660606; fill: #d60416" />
   </g>
   <g transform="translate(112, 392)" >
   <rect x="-5" y="-5" width="10" height="10" style="stroke: #0f04d6; fill: #04d6d3" />
   </g>
   <g transform="translate(74, 303)" >
   <circle r="10" style="stroke: #660606; fill: #d60416" />
   </g>
   <g transform="translate(231, 78)" >
   <circle r="10" style="stroke: #660606; fill: #d60416" />
   </g>
   <g transform="translate(373, 343)" >
   <rect x="-5" y="-5" width="10" height="10" style="stroke: #0f04d6; fill: #04d6d3" />
   </g>
   <g transform="translate(256, 181)" >
   <circle r="10" style="stroke: #660606; fill: #d60416" />
   </g>
   <g transform="translate(185, 153)" >
   <circle r="10" style="stroke: #660606; fill: #d60416" />
   </g>
   <g transform="translate(274, 354)" >
   <circle r="10" style="stroke: #660606; fill: #d60416" />
   </g>
   <g transform="translate(379, 125)" >
   <rect x="-5" y="-5" width="10" height="10" style="stroke: #0f04d6; fill: #04d6d3" />
   </g>
   <g transform="translate(376, 275)" >
   <circle r="10" style="stroke: #660606; fill: #d60416" />
   </g>
   <g transform="translate(180, 286)" >
   <rect x="-5" y="-5" width="10" height="10" style="stroke: #0f04d6; fill: #04d6d3" />
   </g>
   <g transform="translate(237, 281)" >
   <circle r="10" style="stroke: #660606; fill: #d60416" />
   </g>
   <g transform="translate(177, 232)" >
   <circle r="10" style="stroke: #660606; fill: #d60416" />
   </g>
   <g transform="translate(195, 35)" >
   <circle r="10" style="stroke: #660606; fill: #d60416" />
   </g>
   <g transform="translate(227, 20)" >
   <circle r="10" style="stroke: #660606; fill: #d60416" />
   </g>
   <g transform="translate(386, 330)" >
   <circle r="10" style="stroke: #660606; fill: #d60416" />
   </g>
   <g transform="translate(296, 351)" >
   <circle r="10" style="stroke: #660606; fill: #d60416" />
   </g>
   <g transform="translate(1, 69)" >
   <circle r="10" style="stroke: #660606; fill: #d60416" />
   </g>
   <g transform="translate(21, 345)" >
   <circle r="10" style="stroke: #660606; fill: #d60416" />
   </g>
   <g transform="translate(166, 397)" >
   <circle r="10" style="stroke: #660606; fill: #d60416" />
   </g>
   <g transform="translate(373, 246)" >
   <rect x="-5" y="-5" width="10" height="10" style="stroke: #0f04d6; fill: #04d6d3" />
   </g>
   <g transform="translate(76, 102)" >
   <rect x="-5" y="-5" width="10" height="10" style="stroke: #0f04d6; fill: #04d6d3" />
   </g>
   <g transform="translate(195, 335)" >
   <rect x="-5" y="-5" width="10" height="10" style="stroke: #0f04d6; fill: #04d6d3" />
   </g>
   <g transform="translate(74, 49)" >
   <rect x="-5" y="-5" width="10" height="10" style="stroke: #0f04d6; fill: #04d6d3" />
   </g>
   <g transform="translate(9, 360)" >
   <circle r="10" style="stroke: #660606; fill: #d60416" />
   </g>
   <g transform="translate(27, 324)" >
   <circle r="10" style="stroke: #660606; fill: #d60416" />
   </g>
   <g transform="translate(378, 88)" >
   <circle r="10" style="stroke: #660606; fill: #d60416" />
   </g>
   <g transform="translate(260, 377)" >
   <circle r="10" style="stroke: #660606; fill: #d60416" />
   </g>
   <g transform="translate(210, 140)" >
   <circle r="10" style="stroke: #660606; fill: #d60416" />
   </g>
   <g transform="translate(324, 251)" >
   <circle r="10" style="stroke: #660606; fill: #d60416" />
   </g>
   <g transform="translate(156, 210)" >
   <circle r="10" style="stroke: #660606; fill: #d60416" />
   </g>
   <g transform="translate(214, 333)" >
   <rect x="-5" y="-5" width="10" height="10" style="stroke: #0f04d6; fill: #04d6d3" />
   </g>
   <g transform="translate(27, 129)" >
   <rect x="-5" y="-5" width="10" height="10" style="stroke: #0f04d6; fill: #04d6d3" />
   </g>
   <g transform="translate(138, 381)" >
   <circle r="10" style="stroke: #660606; fill: #d60416" />
   </g>
   <g transform="translate(233, 218)" >
   <circle r="10" style="stroke: #660606; fill: #d60416" />
   </g>
   <g transform="translate(195, 30)" >
   <circle r="10" style="stroke: #660606; fill: #d60416" />
   </g>
   <g transform="translate(386, 266)" >
   <circle r="10" style="stroke: #660606; fill: #d60416" />
   </g>
   <g transform="translate(52, 186)" >
   <circle r="10" style="stroke: #660606; fill: #d60416" />
   </g>
   <g transform="translate(389, 38)" >
   <circle r="10" style="stroke: #660606; fill: #d60416" />
   </g>
   <g transform="translate(78, 265)" >
   <rect x="-5" y="-5" width="10" height="10" style="stroke: #0f04d6; fill: #04d6d3" />
   </g>
   <g transform="translate(328, 176)" >
   <circle r="10" style="stroke: #660606; fill: #d60416" />
   </g>
   <g transform="translate(182, 395)" >
   <circle r="10" style="stroke: #660606; fill: #d60416" />
   </g>
   <g transform="translate(169, 309)" >
   <circle r="10" style="stroke: #660606; fill: #d60416" />
   </g>
   <g transform="translate(245, 167)" >
   <circle r="10" style="stroke: #660606; fill: #d60416" />
   </g>
   <g transform="translate(380, 41)" >
   <circle r="10" style="stroke: #660606; fill: #d60416" />
   </g>
   <g transform="translate(372, 15)" >
   <rect x="-5" y="-5" width="10" height="10" style="stroke: #0f04d6; fill: #04d6d3" />
   </g>
   <g transform="translate(118, 29)" >
   <circle r="10" style="stroke: #660606; fill: #d60416" />
   </g>
   <g transform="translate(389, 330)" >
   <circle r="10" style="stroke: #660606; fill: #d60416" />
   </g>
   <g transform="translate(22, 14)" >
   <rect x="-5" y="-5" width="10" height="10" style="stroke: #0f04d6; fill: #04d6d3" />
   </g>
   <g transform="translate(182, 232)" >
   <rect x="-5" y="-5" width="10" height="10" style="stroke: #0f04d6; fill: #04d6d3" />
   </g>
   <g transform="translate(296, 225)" >
   <circle r="10" style="stroke: #660606; fill: #d60416" />
   </g>
   <g transform="translate(193, 121)" >
   <circle r="10" style="stroke: #660606; fill: #d60416" />
   </g>
   <g transform="translate(202, 239)" >
   <circle r="10" style="stroke: #660606; fill: #d60416" />
   </g>
   <g transform="translate(59, 301)" >
   <circle r="10" style="stroke: #660606; fill: #d60416" />
   </g>
   <g transform="translate(7, 24)" >
   <rect x="-5" y="-5" width="10" height="10" style="stroke: #0f04d6; fill: #04d6d3" />
   </g>
   <g transform="translate(285, 174)" >
   <rect x="-5" y="-5" width="10" height="10" style="stroke: #0f04d6; fill: #04d6d3" />
   </g>
   <g transform="translate(207, 178)" >
   <rect x="-5" y="-5" width="10" height="10" style="stroke: #0f04d6; fill: #04d6d3" />
   </g>
   <g transform="translate(339, 236)" >
   <circle r="10" style="stroke: #660606; fill: #d60416" />
   </g>
   <g transform="translate(261, 21)" >
   <rect x="-5" y="-5" width="10" height="10" style="stroke: #0f04d6; fill: #04d6d3" />
   </g>
   <g transform="translate(152, 354)" >
   <circle r="10" style="stroke: #660606; fill: #d60416" />
   </g>
   <g transform="translate(389, 120)" >
   <circle r="10" style="stroke: #660606; fill: #d60416" />
   </g>
   <g transform="translate(96, 34)" >
   <circle r="10" style="stroke: #660606; fill: #d60416" />
   </g>
   <g transform="translate(140, 82)" >
   <circle r="10" style="stroke: #660606; fill: #d60416" />
   </g>
   <g transform="translate(205, 170)" >
   <rect x="-5" y="-5" width="10" height="10" style="stroke: #0f04d6; fill: #04d6d3" />
   </g>
   <g transform="translate(348, 253)" >
   <circle r="10" style="stroke: #660606; fill: #d60416" />
   </g>
   <g transform="translate(162, 296)" >
   <circle r="10" style="stroke: #660606; fill: #d60416" />
   </g>
   <g transform="translate(338, 23)" >
   <rect x="-5" y="-5" width="10" height="10" style="stroke: #0f04d6; fill: #04d6d3" />
   </g>
   <g transform="translate(346, 154)" >
   <circle r="10" style="stroke: #660606; fill: #d60416" />
   </g>
   <g transform="translate(392, 140)" >
   <rect x="-5" y="-5" width="10" height="10" style="stroke: #0f04d6; fill: #04d6d3" />
   </g>
   <g transform="translate(139, 79)" >
   <circle r="10" style="stroke: #660606; fill: #d60416" />
   </g>
   <g transform="translate(206, 330)" >
   <rect x="-5" y="-5" width="10" height="10" style="stroke: #0f04d6; fill: #04d6d3" />
   </g>
   <g transform="translate(222, 186)" >
   <circle r="10" style="stroke: #660606; fill: #d60416" />
   </g>
   <g transform="translate(215, 260)" >
   <circle r="10" style="stroke: #660606; fill: #d60416" />
   </g>
   <g transform="translate(203, 204)" >
   <circle r="10" style="stroke: #660606; fill: #d60416" />
   </g>
   <g transform="translate(177, 32)" >
   <rect x="-5" y="-5" width="10" height="10" style="stroke: #0f04d6; fill: #04d6d3" />
   </g>
   <g transform="translate(334, 149)" >
   <rect x="-5" y="-5" width="10" height="10" style="stroke: #0f04d6; fill: #04d6d3" />
   </g>
   <g transform="translate(45, 1)" >
   <circle r="10" style="stroke: #660606; fill: #d60416" />
   </g>
   <g transform="translate(316, 375)" >
   <circle r="10" style="stroke: #660606; fill: #d60416" />
   </g>
   <g transform="translate(105, 103)" >
   <circle r="10" style="stroke: #660606; fill: #d60416" />
   </g>
   <g transform="translate(259, 353)" >
   <circle r="10" style="stroke: #660606; fill: #d60416" />
   </g>
   <g transform="translate(100, 395)" >
   <circle r="10" style="stroke: #660606; fill: #d60416" />
   </g>
   <g transform="translate(265, 209)" >
   <rect x="-5" y="-5" width="10" height="10" style="stroke: #0f04d6; fill: #04d6d3" />
   </g>
   <g transform="translate(112, 87)" >
   <circle r="10" style="stroke: #660606; fill: #d60416" />
   </g>
   <g transform="translate(79, 46)" >
   <rect x="-5" y="-5" width="10" height="10" style="stroke: #0f04d6; fill: #04d6d3" />
   </g>
   <g transform="translate(380, 187)" >
   <circle r="10" style="stroke: #660606; fill: #d60416" />
   </g>
   <g transform="translate(170, 378)" >
   <rect x="-5" y="-5" width="10" height="10" style="stroke: #0f04d6; fill: #04d6d3" />
   </g>
   <g transform="translate(147, 183)" >
   <rect x="-5" y="-5" width="10" height="10" style="stroke: #0f04d6; fill: #04d6d3" />
   </g>
   <g transform="translate(83, 172)" >
   <rect x="-5" y="-5" width="10" height="10" style="stroke: #0f04d6; fill: #04d6d3" />
   </g>
   <g transform="translate(97, 58)" >
   <rect x="-5" y="-5" width="10" height="10" style="stroke: #0f04d6; fill: #04d6d3" />
   </g>
   <g transform="translate(95, 351)" >
   <circle r="10" style="stroke: #660606; fill: #d60416" />
   </g>
   <g transform="translate(34, 329)" >
   <circle r="10" style="stroke: #660606; fill: #d60416" />
   </g>
   <g transform="translate(259, 67)" >
   <circle r="10" style="stroke: #660606; fill: #d60416" />
   </g>
   <g transform="translate(228, 267)" >
   <circle r="10" style="stroke: #660606; fill: #d60416" />
   </g>
   <g transform="translate(58, 8)" >
   <rect x="-5" y="-5" width="10" height="10" style="stroke: #0f04d6; fill: #04d6d3" />
   </g>
   <g transform="translate(236, 321)" >
   <rect x="-5" y="-5" width="10" height="10" style="stroke: #0f04d6; fill: #04d6d3" />
   </g>
   <g transform="translate(185, 355)" >
   <rect x="-5" y="-5" width="10" height="10" style="stroke: #0f04d6; fill: #04d6d3" />
   </g>
   <g transform="translate(284, 186)" >
   <rect x="-5" y="-5" width="10" height="10" style="stroke: #0f04d6; fill: #04d6d3" />
   </g>
   <g transform="translate(270, 361)" >
   <rect x="-5" y="-5" width="10" height="10" style="stroke: #0f04d6; fill: #04d6d3" />
   </g>
   <g transform="translate(104, 220)" >
   <rect x="-5" y="-5" width="10" height="10" style="stroke: #0f04d6; fill: #04d6d3" />
   </g>
   <g transform="translate(2, 260)" >
   <circle r="10" style="stroke: #660606; fill: #d60416" />
   </g>
   <g transform="translate(153, 271)" >
   <rect x="-5" y="-5" width="10" height="10" style="stroke: #0f04d6; fill: #04d6d3" />
   </g>
   <g transform="translate(383, 47)" >
   <rect x="-5" y="-5" width="10" height="10" style="stroke: #0f04d6; fill: #04d6d3" />
   </g>
   <g transform="translate(169, 270)" >
   <rect x="-5" y="-5" width="10" height="10" style="stroke: #0f04d6; fill: #04d6d3" />
   </g>
   <g transform="translate(308, 4)" >
   <rect x="-5" y="-5" width="10" height="10" style="stroke: #0f04d6; fill: #04d6d3" />
   </g>
   <g transform="translate(347, 289)" >
   <circle r="10" style="stroke: #660606; fill: #d60416" />
   </g>
   <g transform="translate(48, 184)" >
   <rect x="-5" y="-5" width="10" height="10" style="stroke: #0f04d6; fill: #04d6d3" />
   </g>
   <g transform="translate(27, 17)" >
   <rect x="-5" y="-5" width="10" height="10" style="stroke: #0f04d6; fill: #04d6d3" />
   </g>
   <g transform="translate(51, 146)" >
   <rect x="-5" y="-5" width="10" height="10" style="stroke: #0f04d6; fill: #04d6d3" />
   </g>
   <g transform="translate(13, 184)" >
   <circle r="10" style="stroke: #660606; fill: #d60416" />
   </g>
   <g transform="translate(60, 299)" >
   <circle r="10" style="stroke: #660606; fill: #d60416" />
   </g>
   <g transform="translate(1, 194)" >
   <circle r="10" style="stroke: #660606; fill: #d60416" />
   </g>
   <g transform="translate(25, 397)" >
   <circle r="10" style="stroke: #660606; fill: #d60416" />
   </g>
   <g transform="translate(373, 265)" >
   <rect x="-5" y="-5" width="10" height="10" style="stroke: #0f04d6; fill: #04d6d3" />
   </g>
   <g transform="translate(253, 292)" >
   <rect x="-5" y="-5" width="10" height="10" style="stroke: #0f04d6; fill: #04d6d3" />
   </g>
   <g transform="translate(393, 224)" >
   <circle r="10" style="stroke: #660606; fill: #d60416" />
   </g>
   <g transform="translate(360, 104)" >
   <rect x="-5" y="-5" width="10" height="10" style="stroke: #0f04d6; fill: #04d6d3" />
   </g>
   <g transform="translate(23, 162)" >
   <circle r="10" style="stroke: #660606; fill: #d60416" />
   </g>
   <g transform="translate(399, 226)" >
   <rect x="-5" y="-5" width="10" height="10" style="stroke: #0f04d6; fill: #04d6d3" />
   </g>
   <g transform="translate(178, 373)" >
   <rect x="-5" y="-5" width="10" height="10" style="stroke: #0f04d6; fill: #04d6d3" />
   </g>
   <g transform="translate(121, 297)" >
   <circle r="10" style="stroke: #660606; fill: #d60416" />
   </g>
   <g transform="translate(327, 238)" >
   <circle r="10" style="stroke: #660606; fill: #d60416" />
   </g>
   <g transform="translate(122, 140)" >
   <rect x="-5" y="-5" width="10" height="10" style="stroke: #0f04d6; fill: #04d6d3" />
   </g>
   <g transform="translate(234, 47)" >
   <circle r="10" style="stroke: #660606; fill: #d60416" />
   </g>
   <g transform="translate(182, 249)" >
   <rect x="-5" y="-5" width="10" height="10" style="stroke: #0f04d6; fill: #04d6d3" />
   </g>
   <g transform="translate(76, 94)" >
   <circle r="10" style="stroke: #660606; fill: #d60416" />
   </g>
   <g transform="translate(74, 151)" >
   <rect x="-5" y="-5" width="10" height="10" style="stroke: #0f04d6; fill: #04d6d3" />
   </g>
   <g transform="translate(295, 230)" >
   <circle r="10" style="stroke: #660606; fill: #d60416" />
   </g>
   <g transform="translate(72, 321)" >
   <rect x="-5" y="-5" width="10" height="10" style="stroke: #0f04d6; fill: #04d6d3" />
   </g>
   <g transform="translate(209, 277)" >
   <rect x="-5" y="-5" width="10" height="10" style="stroke: #0f04d6; fill: #04d6d3" />
   </g>
   <g transform="translate(21, 33)" >
   <rect x="-5" y="-5" width="10" height="10" style="stroke: #0f04d6; fill: #04d6d3" />
   </g>
   <g transform="translate(194, 313)" >
   <circle r="10" style="stroke: #660606; fill: #d60416" />
   </g>
   <g transform="translate(148, 160)" >
   <rect x="-5" y="-5" width="10" height="10" style="stroke: #0f04d6; fill: #04d6d3" />
   </g>
   <g transform="translate(136, 34)" >
   <circle r="10" style="stroke: #660606; fill: #d60416" />
   </g>
   <g transform="translate(288, 246)" >
   <circle r="10" style="stroke: #660606; fill: #d60416" />
   </g>
   <g transform="translate(345, 32)" >
   <circle r="10" style="stroke: #660606; fill: #d60416" />
   </g>
   <g transform="translate(170, 260)" >
   <rect x="-5" y="-5" width="10" height="10" style="stroke: #0f04d6; fill: #04d6d3" />
   </g>
   <g transform="translate(4, 267)" >
   <rect x="-5" y="-5" width="10" height="10" style="stroke: #0f04d6; fill: #04d6d3" />
   </g>
   <g transform="translate(303, 54)" >
   <circle r="10" style="stroke: #660606; fill: #d60416" />
   </g>
   <g transform="translate(67, 249)" >
   <circle r="10" style="stroke: #660606; fill: #d60416" />
   </g>
   <g transform="translate(112, 126)" >
   <circle r="10" style="stroke: #660606; fill: #d60416" />
   </g>
   <g transform="translate(17, 5)" >
   <circle r="10" style="stroke: #660606; fill: #d60416" />
   </g>
   <g transform="translate(190, 87)" >
   <circle r="10" style="stroke: #660606; fill: #d60416" />
   </g>
   <g transform="translate(232, 192)" >
   <circle r="10" style="stroke: #660606; fill: #d60416" />
   </g>
   <g transform="translate(271, 202)" >
   <rect x="-5" y="-5" width="10" height="10" style="stroke: #0f04d6; fill: #04d6d3" />
   </g>
   <g transform="translate(133, 171)" >
   <rect x="-5" y="-5" width="10" height="10" style="stroke: #0f04d6; fill: #04d6d3" />
   </g>
   <g transform="translate(289, 232)" >
   <circle r="10" style="stroke: #660606; fill: #d60416" />
   </g>
   <g transform="translate(325, 325)" >
   <circle r="10" style="stroke: #660606; fill: #d60416" />
   </g>
   <g transform="translate(334, 237)" >
   <rect x="-5" y="-5" width="10" height="10" style="stroke: #0f04d6; fill: #04d6d3" />
   </g>
   <g transform="translate(378, 188)" >
   <circle r="10" style="stroke: #660606; fill: #d60416" />
   </g>
   <g transform="translate(337, 390)" >
   <rect x="-5" y="-5" width="10" height="10" style="stroke: #0f04d6; fill: #04d6d3" />
   </g>
   <g transform="translate(301, 164)" >
   <circle r="10" style="stroke: #660606; fill: #d60416" />
   </g>
   <g transform="translate(338, 371)" >
   <circle r="10" style="stroke: #660606; fill: #d60416" />
   </g>
   <g transform="translate(395, 327)" >
   <circle r="10" style="stroke: #660606; fill: #d60416" />
   </g>
   <g transform="translate(142, 337)" >
   <circle r="10" style="stroke: #660606; fill: #d60416" />
   </g>
   <g transform="translate(58, 15)" >
   <rect x="-5" y="-5" width="10" height="10" style="stroke: #0f04d6; fill: #04d6d3" />
   </g>
   <g transform="translate(68, 119)" >
   <circle r="10" style="stroke: #660606; fill: #d60416" />
   </g>
   <g transform="translate(57, 384)" >
   <circle r="10" style="stroke: #660606; fill: #d60416" />
   </g>
</svg>
